<?xml version="1.0" encoding="UTF-8"?>
<svg version="1.1" xmlns="http://www.w3.org/2000/svg" width="500" height="500">
<path d="M0 0 C1.36067588 24.18979347 -8.52692125 45.47779261 -23.86328125 63.796875 C-24.56839844 64.52390625 -25.27351563 65.2509375 -26 66 C-26.66 66 -27.32 66 -28 66 C-28 66.66 -28 67.32 -28 68 C-30.0546875 69.953125 -30.0546875 69.953125 -32.875 72.25 C-34.23238281 73.37148437 -34.23238281 73.37148437 -35.6171875 74.515625 C-44.30099057 81.11274711 -54.05111228 85.44414763 -64 89.75 C-65.48692305 90.39947204 -66.9736528 91.04938678 -68.46020508 91.69970703 C-81.95463024 97.59100457 -95.49585172 103.37515274 -109.03588867 109.16064453 C-120.98285679 114.26687672 -132.90661684 119.42372045 -144.8125 124.625 C-148.02599903 126.02874349 -151.23951116 127.43245686 -154.453125 128.8359375 C-155.24177948 129.18036896 -156.03043396 129.52480042 -156.84298706 129.87966919 C-165.57386535 133.69050003 -174.31764898 137.47137054 -183.0625 141.25 C-184.595226 141.91265323 -186.12794095 142.57533201 -187.66064453 143.23803711 C-194.27616779 146.09787222 -200.89279351 148.95507848 -207.51350403 151.80288696 C-210.2604024 152.98490112 -213.00635962 154.16909115 -215.75216675 155.3536377 C-217.61324981 156.15550838 -219.47566558 156.95428377 -221.33813477 157.75292969 C-240.6029716 166.06718431 -255.51663179 175.07523465 -264.21720409 194.96244335 C-267.20078109 202.72846141 -268.44564699 210.14524988 -268.43237305 218.4284668 C-268.4425647 219.40543015 -268.45275635 220.38239349 -268.46325684 221.38896179 C-268.49313281 224.57577437 -268.50261369 227.76228515 -268.51171875 230.94921875 C-268.52858428 233.17553181 -268.54673702 235.40183545 -268.56611633 237.62812805 C-268.61341877 243.45589252 -268.6433557 249.28361879 -268.66955566 255.11151123 C-268.69946123 261.07116228 -268.74595705 267.03068203 -268.79101562 272.99023438 C-268.87682382 284.66008728 -268.94426873 296.32996738 -269 308 C-264.29221086 305.98439547 -259.58463145 303.96830211 -254.87722778 301.95179749 C-253.28308471 301.26899197 -251.68888899 300.58630934 -250.09463501 299.90376282 C-239.67578238 295.44302607 -229.26825083 290.95758477 -218.875 286.4375 C-202.95950054 279.52394676 -186.98378682 272.75390648 -171 266 C-170.67 266.66 -170.34 267.32 -170 268 C-176.91780269 278.22185339 -183.91798433 288.36911196 -191.18115234 298.34912109 C-194.42122848 302.803369 -197.61623469 307.28484424 -200.7722168 311.79907227 C-212.92400436 329.16289614 -222.65919134 337.82092406 -242.125 346.0625 C-243.88684143 346.81780302 -245.64822973 347.57416384 -247.40917969 348.33154297 C-250.94865554 349.85235072 -254.49036652 351.36774556 -258.03417969 352.87841797 C-262.36606986 354.72646038 -266.6897251 356.59261478 -271.0078125 358.47265625 C-271.6191806 358.7387973 -272.23054871 359.00493835 -272.86044312 359.27914429 C-273.46159943 359.54087433 -274.06275574 359.80260437 -274.68212891 360.07226562 C-286.24643894 365.10504322 -297.83247979 370.08794544 -309.42175293 375.06292725 C-310.95031287 375.71917498 -312.47871962 376.37577967 -314.00695801 377.03277588 C-320.57618834 379.85605946 -327.14650696 382.67876149 -333.7578125 385.40234375 C-334.85826904 385.85661743 -334.85826904 385.85661743 -335.98095703 386.32006836 C-341.00612121 388.01233949 -345.41104106 387.49985651 -350.25 385.375 C-354.05093132 383.24677716 -356.057749 380.96219203 -358 377 C-359.34065574 371.73313818 -358.96566006 368.05455444 -357 363 C-354.11791106 358.73669297 -351.30464647 356.78559944 -346.69140625 354.5703125 C-346.08059708 354.27561066 -345.4697879 353.98090881 -344.84046936 353.67727661 C-337.37948832 350.13496509 -329.69092677 347.11610568 -321.99829102 344.11962891 C-320.10744372 343.3800954 -318.22352299 342.62475876 -316.33984375 341.8671875 C-315.24019287 341.43519043 -314.14054199 341.00319336 -313.00756836 340.55810547 C-308.46133381 338.20287624 -304.77323872 334.89102109 -303 330 C-302.26714895 325.31316192 -302.55597372 321.85633639 -304.75 317.625 C-308.33532261 313.44212362 -310.80993122 311.46870607 -316.46972656 310.85375977 C-322.17591873 311.18355609 -327.34986618 314.06866959 -332.5 316.375 C-333.85202584 316.96351918 -335.20491634 317.55005531 -336.55859375 318.13476562 C-339.48551887 319.40142818 -342.40805626 320.67757483 -345.328125 321.95996094 C-352.67273187 325.17749115 -360.0624204 328.2896575 -367.44570923 331.41708374 C-370.00532089 332.50225584 -372.56377294 333.59011484 -375.12182617 334.67895508 C-386.94095888 339.70968245 -398.76924665 344.71830734 -410.62963867 349.65112305 C-416.04023871 351.90442435 -421.43525222 354.17505026 -426.78125 356.578125 C-427.64516357 356.960896 -428.50907715 357.34366699 -429.39916992 357.73803711 C-430.92197193 358.41601907 -432.43878746 359.1077672 -433.9465332 359.81860352 C-439.21490787 362.14666853 -444.26726357 362.80027945 -450 362 C-454.04071146 360.26850181 -456.99477378 358.06805286 -460 354.875 C-461.6054572 350.25931056 -461.63860109 345.82498598 -461 341 C-457.45776728 333.78434076 -451.61660442 330.55441437 -444.4140625 327.59375 C-443.66203049 327.27685211 -442.90999847 326.95995422 -442.13517761 326.63345337 C-439.6347905 325.58164218 -437.12990617 324.54099767 -434.625 323.5 C-432.83906739 322.75071724 -431.05351229 322.00053414 -429.26831055 321.24951172 C-425.47128257 319.65264664 -421.67281369 318.05927586 -417.87353516 316.46777344 C-409.14799101 312.80753458 -400.4475171 309.08845761 -391.74438477 305.37533569 C-374.71806397 298.11426702 -357.67582079 290.8908233 -340.625 283.6875 C-339.70095367 283.29685364 -338.77690735 282.90620728 -337.82485962 282.50372314 C-336.03213416 281.74598876 -334.23920572 280.98873438 -332.44606018 280.23199463 C-330.73768096 279.51079662 -329.02985109 278.7882957 -327.32261658 278.06439209 C-323.27219476 276.3524453 -319.21276352 274.67930402 -315.11621094 273.08056641 C-314.34103119 272.77423782 -313.56585144 272.46790924 -312.7671814 272.15229797 C-311.32687876 271.58563293 -309.88248824 271.02919048 -308.43325806 270.48576355 C-303.15270997 268.3975682 -299.59321947 265.60708641 -296.625 260.75 C-295.51267511 255.85577047 -295.60422879 251.24827818 -298.3046875 246.8984375 C-301.76676993 242.71293485 -303.91209652 241.20483334 -309.50390625 240.65625 C-316.10956558 240.7407638 -321.88881572 244.10451977 -327.77929688 246.80078125 C-334.91592238 249.92522466 -340.80081033 251.50536988 -348.3125 248.8125 C-352.70199984 245.85213964 -355.73433405 242.17772433 -357 237 C-357.2412833 231.7543223 -356.87449716 227.80534157 -353.67578125 223.52734375 C-349.39812756 218.84838309 -343.94790205 216.8233241 -338.1875 214.4375 C-337.02710205 213.93790771 -335.8667041 213.43831543 -334.67114258 212.92358398 C-328.58822854 210.30691827 -322.46850913 207.77745169 -316.35551453 205.23210144 C-313.36334199 203.9845201 -310.37375487 202.73079233 -307.38394165 201.47756958 C-305.22436144 200.57785701 -303.05933196 199.69242156 -300.89331055 198.80834961 C-299.54718757 198.24895781 -298.20123219 197.68916247 -296.85546875 197.12890625 C-295.67621826 196.64494385 -294.49696777 196.16098145 -293.28198242 195.66235352 C-288.72573692 193.35457433 -284.6799062 191.0397186 -283 186 C-282.47561428 181.00544092 -282.44996904 177.12043344 -284.6875 172.5625 C-287.63482552 169.29654469 -289.64550119 167.24778164 -294.16229248 166.77244568 C-300.46095264 166.64006113 -305.02045528 167.71472322 -310.703125 170.34765625 C-311.51972092 170.7072644 -312.33631683 171.06687256 -313.17765808 171.43737793 C-315.87600179 172.62946713 -318.56250175 173.84618365 -321.25 175.0625 C-324.14437331 176.34728518 -327.04166792 177.62533801 -329.93894958 178.90354919 C-331.99554912 179.81165313 -334.05116288 180.72199242 -336.10585022 181.63441467 C-347.95171655 186.88992777 -359.87732301 191.95599116 -371.80578613 197.02023315 C-375.40113799 198.54705828 -378.99518211 200.07692243 -382.58886719 201.60766602 C-384.80790634 202.55233152 -387.02698016 203.49691562 -389.24609375 204.44140625 C-390.26189011 204.873927 -391.27768646 205.30644775 -392.32426453 205.7520752 C-393.26453995 206.15172485 -394.20481537 206.55137451 -395.17358398 206.96313477 C-395.98907211 207.30997818 -396.80456024 207.65682159 -397.64476013 208.01417542 C-403.73506379 210.5633727 -408.34449106 211.86532299 -415 211 C-419.81477644 208.59261178 -423.70957093 205.22607267 -425.75 200.125 C-426.44306261 194.2339678 -426.41024504 190.00879741 -423 185 C-416.027599 177.97442406 -405.94241411 174.84540441 -397 171.125 C-395.14808036 170.34449415 -393.29669536 169.56271873 -391.44580078 168.77978516 C-387.43207537 167.08275767 -383.41631963 165.39065695 -379.39941406 163.70117188 C-369.37561633 159.47807065 -359.38530794 155.1765804 -349.39089966 150.88452148 C-343.44532257 148.33183875 -337.49803654 145.78314484 -331.55078125 143.234375 C-330.35478806 142.72173096 -329.15879486 142.20908691 -327.92655945 141.6809082 C-320.63652135 138.5566455 -313.34481707 135.43630589 -306.05183411 132.31892395 C-279.70961873 121.05892077 -253.40516265 109.72475189 -227.19261169 98.16603088 C-218.26450667 94.23106706 -209.32039089 90.3329708 -200.375 86.4375 C-199.57262909 86.088013 -198.77025818 85.738526 -197.943573 85.37844849 C-193.91011294 83.62160674 -189.87649689 81.86512363 -185.84277344 80.10888672 C-178.53985686 76.92903598 -171.23851768 73.74556647 -163.93704224 70.56240845 C-161.50616693 69.50268842 -159.0752369 68.44309407 -156.64428711 67.38354492 C-149.24799585 64.15978743 -141.85188439 60.93561963 -134.45648193 57.70982361 C-130.2835834 55.88966352 -126.11056409 54.06978047 -121.9375 52.25 C-121.11795837 51.89259735 -120.29841675 51.5351947 -119.45404053 51.16696167 C-109.01784616 46.61625197 -98.5750822 42.08122272 -88.125 37.5625 C-77.12069055 32.80314559 -66.13837175 27.99500427 -55.16256714 23.1703186 C-47.44302141 19.77722934 -39.7219852 16.38753357 -32 13 C-31.21135559 12.65400757 -30.42271118 12.30801514 -29.61016846 11.95153809 C-25.25218878 10.04038158 -20.89245266 8.13334251 -16.52978516 6.23291016 C-15.22795001 5.665195 -13.92667068 5.09620343 -12.62597656 4.52587891 C-10.85762787 3.750782 -9.08707994 2.98070824 -7.31640625 2.2109375 C-6.33099854 1.78087402 -5.34559082 1.35081055 -4.33032227 0.90771484 C-2 0 -2 0 0 0 Z " fill="#03CD34" transform="translate(500,0)"/>
<path d="M0 0 C0.11702352 26.84344557 0.20508127 53.68685266 0.25906086 80.53050232 C0.28479548 92.99568227 0.31985522 105.46070332 0.37719727 117.92578125 C0.42717751 128.79576511 0.45932544 139.66563383 0.47044247 150.53572941 C0.47693647 156.28648706 0.49209997 162.03691546 0.52865028 167.78756714 C0.56284097 173.21142511 0.57300669 178.63482134 0.56553841 184.05877686 C0.5669027 186.03875242 0.57669645 188.01874504 0.59602737 189.99862671 C0.79824779 211.79783946 -4.45900949 228.13691642 -20 244 C-20.88751953 244.94166016 -20.88751953 244.94166016 -21.79296875 245.90234375 C-33.59757006 257.39424039 -52.19788279 262.64403831 -67.06240845 269.01705933 C-76.05450665 272.87561775 -85.02384269 276.78654659 -93.99554443 280.69223022 C-98.97562218 282.85994248 -103.95653799 285.02572678 -108.9375 287.19140625 C-110.37716629 287.81738457 -110.37716629 287.81738457 -111.84591675 288.45600891 C-125.73604433 294.4947298 -139.63462674 300.51392258 -153.53466797 306.52978516 C-168.38625563 312.95772215 -183.22951478 319.40424607 -198.0625 325.875 C-214.38821475 332.99673083 -230.72355944 340.09616771 -247.0625 347.1875 C-248.77471237 347.93081573 -248.77471237 347.93081573 -250.52151489 348.68914795 C-256.79638963 351.41306227 -263.07262143 354.13380482 -269.35040283 356.85101318 C-271.76648403 357.89873677 -274.18026427 358.95154665 -276.59326172 360.00634766 C-277.87333675 360.56290751 -279.15344401 361.11939326 -280.43359375 361.67578125 C-281.48474365 362.13509033 -282.53589355 362.59439941 -283.61889648 363.06762695 C-286 364 -286 364 -288 364 C-289.39728985 339.15929149 -279.05743962 317.16598808 -262.8125 298.8125 C-251.89296072 287.05579604 -238.52486243 280.33599366 -224 274 C-223.08767609 273.60164948 -223.08767609 273.60164948 -222.15692139 273.19525146 C-214.65464178 269.92169461 -207.14083727 266.67511757 -199.62117004 263.44172668 C-188.59890312 258.70174171 -177.60703291 253.89488195 -166.625 249.0625 C-154.51228037 243.73383089 -142.39276217 238.42167127 -130.2578125 233.14379883 C-124.59070819 230.67888237 -118.92741569 228.20526225 -113.26467896 225.73033142 C-108.99438938 223.86540841 -104.71702922 222.01818828 -100.43359375 220.18359375 C-84.22896144 213.18517022 -70.69639501 203.57513476 -63 187 C-57.5754462 173.00958596 -56.83855099 159.57727189 -56.68359375 144.71484375 C-56.66298883 143.04618354 -56.64199152 141.37752814 -56.62062073 139.70887756 C-56.56576503 135.34424766 -56.5161968 130.97957354 -56.46777344 126.61486816 C-56.41728966 122.15010707 -56.36174474 117.68540916 -56.30664062 113.22070312 C-56.19950643 104.48052237 -56.09796459 95.74028832 -56 87 C-56.81190796 87.35191406 -57.62381592 87.70382813 -58.46032715 88.06640625 C-85.74016011 99.89020767 -85.74016011 99.89020767 -95.96875 104.3125 C-96.68491486 104.62215698 -97.40107971 104.93181396 -98.13894653 105.25085449 C-101.8016591 106.83428305 -105.464851 108.41659617 -109.12841797 109.99804688 C-116.00382282 112.96706282 -122.87693959 115.94059054 -129.73480225 118.94995117 C-132.53741283 120.1797874 -135.34157416 121.40606649 -138.14575195 122.63232422 C-139.45473798 123.20616612 -140.76286085 123.78198141 -142.07006836 124.35986328 C-143.8596974 125.1509699 -145.65242696 125.93505157 -147.4453125 126.71875 C-148.45094238 127.16154297 -149.45657227 127.60433594 -150.49267578 128.06054688 C-153 129 -153 129 -156 129 C-154.19732009 124.99180669 -151.68179759 121.47246018 -149.1875 117.875 C-148.70394043 117.17415283 -148.22038086 116.47330566 -147.72216797 115.7512207 C-143.55985388 109.74673411 -139.27714489 103.83306809 -134.97924805 97.92529297 C-131.05642146 92.51358195 -127.253313 87.03036409 -123.5 81.5 C-118.61024206 74.29575663 -113.60127791 67.19161112 -108.46191406 60.16308594 C-105.60776885 56.25676961 -102.88381462 52.30995848 -100.25 48.25 C-94.35402438 39.88905117 -84.66636753 36.22537045 -75.5625 32.25 C-74.32507678 31.70276302 -73.08786021 31.15505857 -71.85083008 30.60693359 C-58.5737614 24.74442857 -45.22143309 19.05016643 -31.87133789 13.35644531 C-30.5874543 12.80887573 -30.5874543 12.80887573 -29.27763367 12.25024414 C-27.59731939 11.53371161 -25.91691166 10.81739821 -24.23640442 10.10131836 C-18.05396279 7.46243328 -11.89239065 4.77792278 -5.74882507 2.04971313 C-1.10680529 0 -1.10680529 0 0 0 Z " fill="#0CC0DF" transform="translate(424,131)"/>
<path d="M0 0 C4.35442364 2.26655744 6.82458657 4.97339189 8.99609375 9.31640625 C10.27934293 13.66175346 10.20088883 16.6451335 8.87109375 21.00390625 C4.54618712 28.64457464 -1.00400711 31.01470517 -8.87890625 34.31640625 C-9.95793213 34.77700439 -11.03695801 35.23760254 -12.14868164 35.7121582 C-14.49926337 36.71345838 -16.85198432 37.70974783 -19.20654297 38.70166016 C-22.52339128 40.10434727 -25.8203881 41.54917657 -29.11437988 43.00460815 C-31.87457984 44.22129335 -34.64159546 45.42192977 -37.40997314 46.61987305 C-38.7511971 47.20354302 -40.08993741 47.79295788 -41.42596436 48.38842773 C-50.16436123 52.27264775 -57.95271798 55.44552805 -67.37890625 52.12890625 C-70.84126751 49.73822824 -73.1241943 47.07583015 -75.00390625 43.31640625 C-75.55876987 37.83144292 -75.99042629 31.63402689 -72.7331543 26.90185547 C-63.14151262 18.10782454 -46.6513548 13.84373655 -34.81640625 8.94140625 C-32.83380574 8.11501177 -30.8513826 7.28819163 -28.86914062 6.4609375 C-21.61770122 3.44053233 -21.61770122 3.44053233 -18.06958008 1.97119141 C-16.99707756 1.52654037 -16.99707756 1.52654037 -15.90290833 1.07290649 C-10.69166727 -1.0030813 -5.42880365 -1.85193107 0 0 Z " fill="#03CD34" transform="translate(75.00390625,393.68359375)"/>
<path d="M0 0 C5.09459883 2.73598826 8.1667679 5.5003037 10 11 C10.77245664 17.53422335 9.94066541 21.71121222 6 27 C1.33787983 30.49757927 -3.6370553 32.80457473 -8.94921875 35.109375 C-9.80248245 35.48104797 -10.65574615 35.85272095 -11.53486633 36.23565674 C-13.33448904 37.01555383 -15.13564543 37.79192038 -16.93823242 38.56494141 C-19.66973804 39.74234379 -22.38819197 40.94691447 -25.10742188 42.15234375 C-42.71650911 49.8080868 -42.71650911 49.8080868 -51 48 C-55.40824285 45.99625325 -58.07525853 43.41441085 -60.3046875 39.05859375 C-61.66241283 35.03881145 -61.68109799 31.16226552 -61 27 C-57.57563388 20.15126776 -52.28113449 16.88716494 -45.40625 13.94140625 C-44.77827515 13.67037582 -44.15030029 13.3993454 -43.5032959 13.12010193 C-42.17693145 12.54933623 -40.84897304 11.98226187 -39.51953125 11.41870117 C-37.53039277 10.57538533 -35.54611175 9.72145723 -33.5625 8.86523438 C-27.35433371 6.19632252 -21.11541991 3.6001795 -14.83984375 1.09375 C-13.32571899 0.48756836 -13.32571899 0.48756836 -11.78100586 -0.13085938 C-7.61072647 -1.43418609 -4.12756287 -1.3841928 0 0 Z " fill="#02CD33" transform="translate(118,238)"/>
<path d="M0 0 C4.14141162 2.55929931 7.20609421 5.41464267 9 10 C9.6773018 15.21364875 9.63590295 19.65482068 7.375 24.4375 C2.79093932 29.38346021 -2.68766935 31.96131435 -8.875 34.3125 C-9.54402344 34.58900391 -10.21304688 34.86550781 -10.90234375 35.15039062 C-16.04458393 37.1171241 -19.6024216 37.12402003 -25 36 C-29.96998041 33.51500979 -33.16771637 30.27946129 -35 25 C-35.87822037 19.33597196 -35.25603559 14.82791484 -32 10 C-24.53087997 3.14173737 -10.06185704 -4.1076495 0 0 Z " fill="#03CC34" transform="translate(126,372)"/>
<path d="M0 0 C0 68.64 0 137.28 0 208 C-0.33 208 -0.66 208 -1 208 C-1.33 140.68 -1.66 73.36 -2 4 C-5.63 5.32 -9.26 6.64 -13 8 C-13.99 8 -14.98 8 -16 8 C-16 8.66 -16 9.32 -16 10 C-17.32 10 -18.64 10 -20 10 C-20 10.66 -20 11.32 -20 12 C-20.99 12 -21.98 12 -23 12 C-23.33 12.66 -23.66 13.32 -24 14 C-27.96294002 16.34173728 -30.4898534 17 -35 17 C-35.66 17.495 -36.32 17.99 -37 18.5 C-39.49016793 20.36762594 -40.96060155 20.2532832 -44 20 C-44.33 20.66 -44.66 21.32 -45 22 C-45.66 21.34 -46.32 20.68 -47 20 C-41.57409691 17.63358988 -36.14806757 15.26746959 -30.72192383 12.90161133 C-28.87813955 12.09765348 -27.03438908 11.2936181 -25.19067383 10.48950195 C-22.53215394 9.33003406 -19.87351037 8.17085015 -17.21484375 7.01171875 C-16.39789536 6.65534836 -15.58094696 6.29897797 -14.73924255 5.93180847 C-12.49353726 4.95290014 -10.24681792 3.97635111 -8 3 C-7.30915314 2.69768463 -6.61830627 2.39536926 -5.90652466 2.08389282 C-1.11278635 0 -1.11278635 0 0 0 Z " fill="#25BBD9" transform="translate(424,131)"/>
<path d="M0 0 C-3.71676862 1.65466537 -7.43382015 3.30869345 -11.15112305 4.9621582 C-12.41291773 5.52351098 -13.67463802 6.08503103 -14.9362793 6.64672852 C-16.76070398 7.45894766 -18.58542796 8.27049441 -20.41015625 9.08203125 C-21.50465088 9.56905518 -22.59914551 10.0560791 -23.72680664 10.55786133 C-24.80696045 11.03376709 -25.88711426 11.50967285 -27 12 C-27.61446991 12.28015961 -28.22893982 12.56031921 -28.86203003 12.84896851 C-31.75628123 14.14416074 -33.79132478 15 -37 15 C-35.22054913 10.95579349 -32.60470327 7.53921513 -30 4 C-29.34 5.32 -28.68 6.64 -28 8 C-27.67 7.67 -27.34 7.34 -27 7 C-25.33382885 6.95936168 -23.66611905 6.957279 -22 7 C-22 6.34 -22 5.68 -22 5 C-20.68 5.33 -19.36 5.66 -18 6 C-18.33 4.68 -18.66 3.36 -19 2 C-18.01 1.67 -17.02 1.34 -16 1 C-16 1.66 -16 2.32 -16 3 C-15.01 3.33 -14.02 3.66 -13 4 C-13 3.34 -13 2.68 -13 2 C-11.35 2 -9.7 2 -8 2 C-8 1.34 -8 0.68 -8 0 C-4.71303767 -0.79953138 -3.28976808 -1.09658936 0 0 Z " fill="#29BED4" transform="translate(305,245)"/>
<path d="M0 0 C0.33 1.65 0.66 3.3 1 5 C4.3 5.33 7.6 5.66 11 6 C11 5.34 11 4.68 11 4 C11.99 4.33 12.98 4.66 14 5 C14 5.99 14 6.98 14 8 C15.258125 7.649375 16.51625 7.29875 17.8125 6.9375 C20.94716388 6.06390515 21.78282108 5.92760703 25 7 C18.64734734 10.43718405 13.2386591 12.01119258 6 11 C1.27986815 9.33921287 -1.23004114 7.15493829 -4 3 C-4 2.34 -4 1.68 -4 1 C-2 0 -2 0 0 0 Z " fill="#0EC73C" transform="translate(5,436)"/>
<path d="M0 0 C0.33 0 0.66 0 1 0 C1.06959117 10.96168762 1.12285763 21.92332244 1.15543652 32.8851862 C1.17107483 37.97553895 1.19227967 43.06574026 1.22631836 48.15600586 C1.25897711 53.07081524 1.27686681 57.98547918 1.28463173 62.90038872 C1.29016353 64.77302781 1.30096582 66.64565918 1.31719017 68.51823616 C1.33905109 71.14652672 1.34196332 73.77422065 1.34057617 76.40258789 C1.351362 77.17223373 1.36214783 77.94187958 1.3732605 78.73484802 C1.34406235 83.86666364 0.29492623 87.40202487 -2 92 C-3.18858394 88.48494746 -2.78644526 85.96487624 -2.08837891 82.35473633 C-0.70395976 74.00002918 -0.64689224 65.76925608 -0.5859375 57.32421875 C-0.56718078 55.66127104 -0.5476042 53.99833239 -0.5272522 52.33540344 C-0.47639991 48.00372721 -0.43652645 43.67202028 -0.39910889 39.34020996 C-0.35877141 34.90186261 -0.30781639 30.46363774 -0.2578125 26.02539062 C-0.16161029 17.35034478 -0.07703136 8.67523718 0 0 Z " fill="#29BBD5" transform="translate(368,218)"/>
<path d="M0 0 C-0.33 1.32 -0.66 2.64 -1 4 C-2.06541016 4.18175781 -2.06541016 4.18175781 -3.15234375 4.3671875 C-4.07144531 4.53476563 -4.99054688 4.70234375 -5.9375 4.875 C-6.85402344 5.03742188 -7.77054688 5.19984375 -8.71484375 5.3671875 C-9.46894531 5.57601562 -10.22304687 5.78484375 -11 6 C-11.33 6.66 -11.66 7.32 -12 8 C-15.6128101 9.44512404 -18.06687842 10 -22 10 C-22 10.66 -22 11.32 -22 12 C-22.825 12.61875 -23.65 13.2375 -24.5 13.875 C-27.28750755 16.57439668 -27.53859151 19.00234237 -27.75 22.8125 C-27.54571706 28.7148177 -25.68686106 31.61520706 -21.53125 35.671875 C-21.0259375 36.11015625 -20.520625 36.5484375 -20 37 C-23 37 -23 37 -25.5625 34.75 C-29.73290809 30.0449242 -30.45297819 26.66001118 -30.31640625 20.46875 C-29.72176875 15.82910924 -27.269599 13.16200586 -23.92578125 10.1015625 C-20.13124099 7.37597817 -16.14854334 5.60209743 -11.875 3.75 C-11.06417969 3.38648438 -10.25335938 3.02296875 -9.41796875 2.6484375 C-3.39426692 0 -3.39426692 0 0 0 Z " fill="#24BA4B" transform="translate(87,247)"/>
<path d="M0 0 C0 1.98 0 3.96 0 6 C-0.66 5.34 -1.32 4.68 -2 4 C-2.75925781 4.28875 -3.51851563 4.5775 -4.30078125 4.875 C-5.79158203 5.431875 -5.79158203 5.431875 -7.3125 6 C-8.29863281 6.37125 -9.28476562 6.7425 -10.30078125 7.125 C-13 8 -13 8 -16 8 C-16 8.66 -16 9.32 -16 10 C-17.32 10 -18.64 10 -20 10 C-20 10.66 -20 11.32 -20 12 C-20.99 12 -21.98 12 -23 12 C-23.33 12.66 -23.66 13.32 -24 14 C-27.96294002 16.34173728 -30.4898534 17 -35 17 C-35.66 17.495 -36.32 17.99 -37 18.5 C-39.49016793 20.36762594 -40.96060155 20.2532832 -44 20 C-44.33 20.66 -44.66 21.32 -45 22 C-45.66 21.34 -46.32 20.68 -47 20 C-41.57409691 17.63358988 -36.14806757 15.26746959 -30.72192383 12.90161133 C-28.87813955 12.09765348 -27.03438908 11.2936181 -25.19067383 10.48950195 C-22.53215394 9.33003406 -19.87351037 8.17085015 -17.21484375 7.01171875 C-16.39789536 6.65534836 -15.58094696 6.29897797 -14.73924255 5.93180847 C-12.49353726 4.95290014 -10.24681792 3.97635111 -8 3 C-7.30915314 2.69768463 -6.61830627 2.39536926 -5.90652466 2.08389282 C-1.11278635 0 -1.11278635 0 0 0 Z " fill="#2FB7CE" transform="translate(424,131)"/>
<path d="M0 0 C0 0.66 0 1.32 0 2 C-0.7425 2.268125 -1.485 2.53625 -2.25 2.8125 C-6.34155266 4.57930683 -8.52058764 6.28088145 -11 10 C-11 9.34 -11 8.68 -11 8 C-14.43230448 8.26393501 -14.43230448 8.26393501 -18 9 C-18.99 10.485 -18.99 10.485 -20 12 C-21.99422795 12.36628677 -23.99453311 12.70131344 -26 13 C-26.33 13.66 -26.66 14.32 -27 15 C-28.65919896 15.36871088 -30.32774271 15.69595322 -32 16 C-35.76717124 17.08540367 -35.76717124 17.08540367 -38 20 C-38 19.34 -38 18.68 -38 18 C-39.32 17.67 -40.64 17.34 -42 17 C-36.34195291 14.57436372 -30.68193655 12.15340575 -25.02001953 9.73681641 C-23.09303413 8.9135656 -21.16659922 8.08902503 -19.24072266 7.26318359 C-16.4770144 6.0783308 -13.71137818 4.89808692 -10.9453125 3.71875 C-10.0806839 3.34689575 -9.2160553 2.9750415 -8.32522583 2.59191895 C-7.52454681 2.25156616 -6.7238678 1.91121338 -5.89892578 1.56054688 C-4.83969406 1.10754211 -4.83969406 1.10754211 -3.75906372 0.64538574 C-2 0 -2 0 0 0 Z " fill="#1AC244" transform="translate(218,123)"/>
<path d="M0 0 C0.66 0.33 1.32 0.66 2 1 C-2.625 4 -2.625 4 -6 4 C-5.34 5.32 -4.68 6.64 -4 8 C-7.75 9.125 -7.75 9.125 -10 8 C-16.01481052 9.15752648 -21.22217127 11.17773701 -26 15 C-26.99 16.485 -26.99 16.485 -28 18 C-30.31 17.34 -32.62 16.68 -35 16 C-35.33 16.66 -35.66 17.32 -36 18 C-36.66 17.34 -37.32 16.68 -38 16 C-33.07105624 13.88053517 -28.14143626 11.76265399 -23.21118164 9.64624023 C-21.53391112 8.92597286 -19.85682651 8.20527239 -18.17993164 7.48413086 C-15.77018144 6.44791688 -13.35976789 5.41326005 -10.94921875 4.37890625 C-9.82407112 3.89448814 -9.82407112 3.89448814 -8.67619324 3.40028381 C-5.80502809 2.16969601 -2.96499202 0.98833067 0 0 Z " fill="#20C448" transform="translate(138,293)"/>
<path d="M0 0 C0.33 0 0.66 0 1 0 C1.33 2.31 1.66 4.62 2 7 C2.66 6.67 3.32 6.34 4 6 C3.67 6.763125 3.34 7.52625 3 8.3125 C1.82563314 10.99069135 1.82563314 10.99069135 2 14 C5.3 13.67 8.6 13.34 12 13 C12 12.34 12 11.68 12 11 C13.65 11 15.3 11 17 11 C13.83936913 13.60332156 10.6568348 15.14038576 6.875 16.6875 C5.29332031 17.34298828 5.29332031 17.34298828 3.6796875 18.01171875 C1 19 1 19 -1 19 C-1.02714735 16.77090129 -1.04646254 14.54170633 -1.0625 12.3125 C-1.07990234 10.45044922 -1.07990234 10.45044922 -1.09765625 8.55078125 C-1.01478673 5.53764546 -0.70839449 2.91724661 0 0 Z " fill="#26B9D7" transform="translate(137,476)"/>
<path d="M0 0 C0 3 0 3 -1 6 C-1.66 6 -2.32 6 -3 6 C-3.66 7.98 -4.32 9.96 -5 12 C-5.99 12 -6.98 12 -8 12 C-8.33 13.32 -8.66 14.64 -9 16 C-10.32 16.33 -11.64 16.66 -13 17 C-12.67 18.32 -12.34 19.64 -12 21 C-15.63423209 23.32590854 -18.77088331 23.16265833 -23 23 C-22.27425781 22.42507813 -21.54851562 21.85015625 -20.80078125 21.2578125 C-12.87261086 14.86662354 -6.10483952 8.16820707 0 0 Z " fill="#26B6CF" transform="translate(358,324)"/>
<path d="M0 0 C-0.55429688 0.38671875 -1.10859375 0.7734375 -1.6796875 1.171875 C-2.76636719 1.95304687 -2.76636719 1.95304687 -3.875 2.75 C-4.59429687 3.26046875 -5.31359375 3.7709375 -6.0546875 4.296875 C-8.08570565 6.07503547 -8.97855012 7.52701607 -10 10 C-10.639375 9.649375 -11.27875 9.29875 -11.9375 8.9375 C-16.1430267 7.65009387 -19.71464763 8.3091153 -24 9 C-20.81029262 5.81029262 -16.6795531 4.54838773 -12.5625 2.8125 C-11.69044922 2.43158203 -10.81839844 2.05066406 -9.91992188 1.65820312 C-8.66211914 1.12549805 -8.66211914 1.12549805 -7.37890625 0.58203125 C-6.22757202 0.09053589 -6.22757202 0.09053589 -5.05297852 -0.41088867 C-3 -1 -3 -1 0 0 Z " fill="#16C441" transform="translate(190,341)"/>
<path d="M0 0 C-0.33 1.65 -0.66 3.3 -1 5 C-1.886875 4.855625 -2.77375 4.71125 -3.6875 4.5625 C-6.97105127 4.64764699 -6.97105127 4.64764699 -8.51171875 6.55859375 C-9.75852476 8.33413125 -10.91657766 10.12078957 -12 12 C-12.99 11.67 -13.98 11.34 -15 11 C-15.33 10.34 -15.66 9.68 -16 9 C-16.7425 9.350625 -17.485 9.70125 -18.25 10.0625 C-21.21122875 11.0720098 -22.12062561 10.87980884 -25 10 C-21.21091124 8.32742736 -17.41832115 6.66294885 -13.625 5 C-12.00464844 4.28457031 -12.00464844 4.28457031 -10.3515625 3.5546875 C-9.3203125 3.10351562 -8.2890625 2.65234375 -7.2265625 2.1875 C-6.27346191 1.76855469 -5.32036133 1.34960938 -4.33837891 0.91796875 C-2 0 -2 0 0 0 Z " fill="#1BBBD8" transform="translate(335,347)"/>
<path d="M0 0 C0 0.99 0 1.98 0 3 C-0.763125 3.165 -1.52625 3.33 -2.3125 3.5 C-6.24484835 5.69479908 -6.80496538 8.8222367 -8 13 C-7.34 13 -6.68 13 -6 13 C-6 13.66 -6 14.32 -6 15 C-6.66 15 -7.32 15 -8 15 C-7.855625 15.61488281 -7.71125 16.22976562 -7.5625 16.86328125 C-7.376875 17.67152344 -7.19125 18.47976562 -7 19.3125 C-6.814375 20.11300781 -6.62875 20.91351563 -6.4375 21.73828125 C-6 24 -6 24 -6 27 C-10.65893304 21.58962614 -11.49303132 18.1489541 -11 11 C-9.35790367 6.43862132 -5.51803445 0 0 0 Z " fill="#1EC149" transform="translate(85,180)"/>
<path d="M0 0 C-3.66193543 1.59483628 -7.32810142 3.17945517 -10.99853516 4.75463867 C-12.24714433 5.29219367 -13.49455112 5.83255035 -14.74072266 6.37573242 C-16.52970697 7.15494397 -18.32338857 7.92334317 -20.1171875 8.69140625 C-21.19597168 9.15748291 -22.27475586 9.62355957 -23.38623047 10.10375977 C-24.24877441 10.39951904 -25.11131836 10.69527832 -26 11 C-26.66 10.67 -27.32 10.34 -28 10 C-26.71034824 8.62437146 -25.37310707 7.29233607 -24 6 C-23.34 6 -22.68 6 -22 6 C-22 4.68 -22 3.36 -22 2 C-19.0703125 2.390625 -19.0703125 2.390625 -16.140625 2.78125 C-13.69541605 3.06777357 -13.69541605 3.06777357 -10 3 C-10 2.34 -10 1.68 -10 1 C-3.375 -1.125 -3.375 -1.125 0 0 Z " fill="#1BC142" transform="translate(159,320)"/>
<path d="M0 0 C-2.73354237 2.73354237 -5.27785213 2.72579003 -9.00390625 3.33984375 C-9.99197266 3.66662109 -9.99197266 3.66662109 -11 4 C-11.33 4.99 -11.66 5.98 -12 7 C-14.0625 7.6875 -14.0625 7.6875 -16 8 C-17.2039337 11.75399798 -17.09877617 15.33217412 -17.0625 19.25 C-17.05347656 20.51328125 -17.04445313 21.7765625 -17.03515625 23.078125 C-17.02355469 24.04234375 -17.01195313 25.0065625 -17 26 C-19 25 -19 25 -20 22 C-20.56430864 16.30265311 -20.28586378 11.87214284 -17 7 C-12.85009362 2.85009362 -5.89238658 -1.96412886 0 0 Z " fill="#26BC4E" transform="translate(111,375)"/>
<path d="M0 0 C0.33 0.66 0.66 1.32 1 2 C-0.14178128 3.66944521 -1.28852905 5.3354948 -2.4375 7 C-3.07558594 7.928125 -3.71367187 8.85625 -4.37109375 9.8125 C-4.90863281 10.534375 -5.44617188 11.25625 -6 12 C-6.33 12 -6.66 12 -7 12 C-7 10.35 -7 8.7 -7 7 C-6.34 7 -5.68 7 -5 7 C-5 6.34 -5 5.68 -5 5 C-5.99 5 -6.98 5 -8 5 C-8 5.66 -8 6.32 -8 7 C-9.65 7 -11.3 7 -13 7 C-13 7.66 -13 8.32 -13 9 C-13.99 9.33 -14.98 9.66 -16 10 C-16.99 9.34 -17.98 8.68 -19 8 C-12.73 5.36 -6.46 2.72 0 0 Z " fill="#16C141" transform="translate(329,266)"/>
<path d="M0 0 C1 2 1 2 0.25 5.5625 C-0.1625 6.696875 -0.575 7.83125 -1 9 C-1.99 9.33 -2.98 9.66 -4 10 C-5.00739746 11.66220581 -6.00522955 13.33020674 -7 15 C-10.43365693 19.21061579 -14.07972163 23.23653276 -18 27 C-16.72689292 23.52017399 -15.25519006 20.69998469 -13.06640625 17.71484375 C-12.49986328 16.93689453 -11.93332031 16.15894531 -11.34960938 15.35742188 C-10.75986328 14.55884766 -10.17011719 13.76027344 -9.5625 12.9375 C-8.97662109 12.13505859 -8.39074219 11.33261719 -7.78710938 10.50585938 C-5.21412258 6.98662091 -2.61953584 3.48473054 0 0 Z " fill="#31BCCE" transform="translate(294,222)"/>
<path d="M0 0 C0 0.99 0 1.98 0 3 C-1.134375 3.45375 -2.26875 3.9075 -3.4375 4.375 C-7.04721692 5.57095806 -7.04721692 5.57095806 -8 8 C-10.43359375 8.78125 -10.43359375 8.78125 -13.4375 9.5 C-17.66777825 10.42124104 -17.66777825 10.42124104 -21 13 C-24.30835256 13.93312508 -25.67679974 14.10773342 -29 13 C-19.43 8.71 -9.86 4.42 0 0 Z " fill="#31B9D4" transform="translate(216,398)"/>
<path d="M0 0 C13.96494126 -0.68868203 13.96494126 -0.68868203 17.75 1.8125 C20 4 20 4 22 7 C21.67 7.99 21.34 8.98 21 10 C20.60167969 9.50628906 20.20335937 9.01257813 19.79296875 8.50390625 C19.26316406 7.86324219 18.73335937 7.22257813 18.1875 6.5625 C17.66542969 5.92441406 17.14335937 5.28632813 16.60546875 4.62890625 C14.21117108 2.19965533 12.01724901 2.00227817 8.6875 1.5625 C3.60169596 1.5625 -0.74840601 3.8153378 -5.2512207 5.95336914 C-6.81158162 6.68572203 -8.40412153 7.34866377 -10 8 C-10.66 7.67 -11.32 7.34 -12 7 C-8.11690718 3.35224614 -5.28798182 2.41474367 0 2 C0 1.34 0 0.68 0 0 Z " fill="#21BD4A" transform="translate(182,239)"/>
<path d="M0 0 C-12.26335878 7 -12.26335878 7 -17 7 C-17 7.66 -17 8.32 -17 9 C-17.5775 9.103125 -18.155 9.20625 -18.75 9.3125 C-21.0844367 9.86052009 -21.0844367 9.86052009 -22.8125 11.5625 C-25.88910062 13.58426612 -28.40414351 13.20745326 -32 13 C-26.93281384 8.85425888 -20.85805893 6.76816581 -14.875 4.25 C-13.06708984 3.47076172 -13.06708984 3.47076172 -11.22265625 2.67578125 C-10.07410156 2.18980469 -8.92554688 1.70382813 -7.7421875 1.203125 C-6.16219971 0.53265137 -6.16219971 0.53265137 -4.55029297 -0.15136719 C-2 -1 -2 -1 0 0 Z " fill="#2CC051" transform="translate(333,74)"/>
<path d="M0 0 C-0.33 1.32 -0.66 2.64 -1 4 C-3.64 4.33 -6.28 4.66 -9 5 C-9 5.66 -9 6.32 -9 7 C-10.98 7 -12.96 7 -15 7 C-15 7.66 -15 8.32 -15 9 C-18.83887763 10.48320272 -21.06204091 11.22419163 -25 10 C-21.21091124 8.32742736 -17.41832115 6.66294885 -13.625 5 C-12.00464844 4.28457031 -12.00464844 4.28457031 -10.3515625 3.5546875 C-9.3203125 3.10351562 -8.2890625 2.65234375 -7.2265625 2.1875 C-6.27346191 1.76855469 -5.32036133 1.34960938 -4.33837891 0.91796875 C-2 0 -2 0 0 0 Z " fill="#30BAD0" transform="translate(310,358)"/>
<path d="M0 0 C0.66 0.33 1.32 0.66 2 1 C-1.95814959 3.32832329 -5.72054375 5.32996829 -10 7 C-11.23011005 7.66492435 -12.45917191 8.33178952 -13.6875 9 C-18.26644543 11.34638121 -22.94899357 12.21336785 -28 13 C-24.04723839 9.04723839 -18.0916137 7.46103126 -13 5.3125 C-11.77332054 4.78347425 -10.54675662 4.25418048 -9.3203125 3.72460938 C-8.16273438 3.23412109 -7.00515625 2.74363281 -5.8125 2.23828125 C-4.74644531 1.78493408 -3.68039062 1.33158691 -2.58203125 0.86450195 C-1.72996094 0.57921631 -0.87789063 0.29393066 0 0 Z " fill="#28BC4F" transform="translate(308,275)"/>
<path d="M0 0 C0 0.66 0 1.32 0 2 C-0.78375 2.20625 -1.5675 2.4125 -2.375 2.625 C-5.30916286 3.80676612 -5.30916286 3.80676612 -6.3125 7.125 C-6.539375 8.07375 -6.76625 9.0225 -7 10 C-12.94 9.01 -12.94 9.01 -19 8 C-15.7859082 5.85727214 -12.47398867 4.37881715 -8.9375 2.875 C-8.30005859 2.59785156 -7.66261719 2.32070313 -7.00585938 2.03515625 C-2.24880696 0 -2.24880696 0 0 0 Z " fill="#15C440" transform="translate(37,405)"/>
<path d="M0 0 C0 0.99 0 1.98 0 3 C-0.99 3 -1.98 3 -3 3 C-3.2475 3.61875 -3.495 4.2375 -3.75 4.875 C-5.2761115 7.46938956 -6.22694261 7.89837446 -9 9 C-11.796875 9.4140625 -11.796875 9.4140625 -14.75 9.625 C-16.22726563 9.73714844 -16.22726563 9.73714844 -17.734375 9.8515625 C-18.48203125 9.90054688 -19.2296875 9.94953125 -20 10 C-16.31899182 6.85176932 -12.16217266 5.17948825 -7.75 3.3125 C-7.00492188 2.99216797 -6.25984375 2.67183594 -5.4921875 2.34179688 C-3.66351009 1.55640337 -1.83202764 0.77754662 0 0 Z " fill="#1BC644" transform="translate(250,108)"/>
<path d="M0 0 C1.98 0 3.96 0 6 0 C2.46253821 2.35830786 -1.18296639 3.97584017 -5.0625 5.6875 C-5.79533203 6.02072266 -6.52816406 6.35394531 -7.28320312 6.69726562 C-9.16243708 7.52730376 -11.07944523 8.27064895 -13 9 C-13.66 8.67 -14.32 8.34 -15 8 C-11.81213372 4.44780614 -9.84405268 2.36330395 -5 2 C-3.3337447 1.9629721 -1.66598681 1.95240038 0 2 C0 1.34 0 0.68 0 0 Z " fill="#2CBFD7" transform="translate(296,423)"/>
<path d="M0 0 C0.763125 0.309375 1.52625 0.61875 2.3125 0.9375 C4.18789677 1.67893593 6.08684652 2.36228217 8 3 C8.33 3.66 8.66 4.32 9 5 C11.12576782 5.46651207 11.12576782 5.46651207 13.5625 5.625 C14.38878906 5.69976562 15.21507813 5.77453125 16.06640625 5.8515625 C16.70449219 5.90054687 17.34257813 5.94953125 18 6 C18 5.34 18 4.68 18 4 C20.64 3.67 23.28 3.34 26 3 C22.54873425 6.45126575 17.68361124 7.86412095 12.83984375 8.109375 C7.99767187 7.69886332 4.70135577 6.06941698 1 3 C0.67 2.01 0.34 1.02 0 0 Z " fill="#2AB851" transform="translate(94,401)"/>
<path d="M0 0 C-0.66 1.98 -1.32 3.96 -2 6 C-4.64 5.67 -7.28 5.34 -10 5 C-10.66 6.65 -11.32 8.3 -12 10 C-12.33 9.01 -12.66 8.02 -13 7 C-15.01508358 6.26676204 -15.01508358 6.26676204 -17 6 C-14.5433053 4.99580363 -12.08481647 3.99649499 -9.625 3 C-8.92632812 2.71382813 -8.22765625 2.42765625 -7.5078125 2.1328125 C-2.2265625 0 -2.2265625 0 0 0 Z " fill="#10C642" transform="translate(81,318)"/>
<path d="M0 0 C4.33618032 1.03030609 7.21551497 3.36636335 10.16015625 6.60546875 C11.28515625 8.54296875 11.28515625 8.54296875 11.28515625 11.54296875 C10.29515625 11.54296875 9.30515625 11.54296875 8.28515625 11.54296875 C8.24390625 10.77984375 8.20265625 10.01671875 8.16015625 9.23046875 C7.50692016 6.21891762 7.50692016 6.21891762 4.22265625 4.73046875 C3.25328125 4.33859375 2.28390625 3.94671875 1.28515625 3.54296875 C1.28515625 2.88296875 1.28515625 2.22296875 1.28515625 1.54296875 C-2.34484375 1.54296875 -5.97484375 1.54296875 -9.71484375 1.54296875 C-5.95848139 -0.96127282 -4.30716763 -0.59529959 0 0 Z " fill="#25BC4C" transform="translate(115.71484375,237.45703125)"/>
<path d="M0 0 C-0.99 0.33 -1.98 0.66 -3 1 C-3 1.99 -3 2.98 -3 4 C-3.66 4 -4.32 4 -5 4 C-5.33 4.99 -5.66 5.98 -6 7 C-9.3 6.67 -12.6 6.34 -16 6 C-12.77129809 3.57847357 -10.51683772 2.20673509 -6.875 0.75 C-6.00617188 0.39421875 -5.13734375 0.0384375 -4.2421875 -0.328125 C-2 -1 -2 -1 0 0 Z " fill="#17C447" transform="translate(395,47)"/>
<path d="M0 0 C0.02714735 2.22909871 0.04646254 4.45829367 0.0625 6.6875 C0.07410156 7.92886719 0.08570313 9.17023437 0.09765625 10.44921875 C0.01478673 13.46235454 -0.29160551 16.08275339 -1 19 C-1.33 19 -1.66 19 -2 19 C-2 16.69 -2 14.38 -2 12 C-2.66 11.67 -3.32 11.34 -4 11 C-4 10.34 -4 9.68 -4 9 C-3.34 8.67 -2.68 8.34 -2 8 C-2 6.35 -2 4.7 -2 3 C-2.7425 3.350625 -3.485 3.70125 -4.25 4.0625 C-7.21122875 5.0720098 -8.12062561 4.87980884 -11 4 C-9.5437455 3.32880451 -8.08492133 2.66318193 -6.625 2 C-5.81289063 1.62875 -5.00078125 1.2575 -4.1640625 0.875 C-2 0 -2 0 0 0 Z " fill="#21C64D" transform="translate(500,0)"/>
<path d="M0 0 C0.66 0 1.32 0 2 0 C1.33989524 2.84550012 0.48275034 5.52325999 -0.5625 8.25 C-0.83191406 8.95640625 -1.10132813 9.6628125 -1.37890625 10.390625 C-1.58386719 10.92171875 -1.78882813 11.4528125 -2 12 C-2.99 11.34 -3.98 10.68 -5 10 C-6.32 11.32 -7.64 12.64 -9 14 C-7.65686815 10.21908383 -5.97035316 7.34348084 -3.5 4.1875 C-2.8915625 3.39730469 -2.283125 2.60710937 -1.65625 1.79296875 C-0.83640625 0.90544922 -0.83640625 0.90544922 0 0 Z " fill="#22BCD3" transform="translate(326,177)"/>
<path d="M0 0 C-0.54161908 3.79133356 -1.99283725 5.66109564 -5 8 C-7.5625 8.25 -7.5625 8.25 -10 8 C-10.99 8 -11.98 8 -13 8 C-11.2126038 6.66094733 -9.41995047 5.32890934 -7.625 4 C-6.62726563 3.2575 -5.62953125 2.515 -4.6015625 1.75 C-2 0 -2 0 0 0 Z " fill="#2EBDD6" transform="translate(183,414)"/>
<path d="M0 0 C-0.78375 0.598125 -1.5675 1.19625 -2.375 1.8125 C-5.14574323 3.91085249 -5.14574323 3.91085249 -7 7 C-10.76624671 8.25541557 -12.37188934 7.37061958 -16 6 C-13.10600531 3.65788337 -10.32844572 2.13137829 -6.875 0.75 C-6.00617188 0.39421875 -5.13734375 0.0384375 -4.2421875 -0.328125 C-2 -1 -2 -1 0 0 Z " fill="#15C642" transform="translate(141,157)"/>
<path d="M0 0 C-0.9178125 0.45890625 -1.835625 0.9178125 -2.78125 1.390625 C-3.37252686 1.68646484 -3.96380371 1.98230469 -4.57299805 2.28710938 C-5.8602715 2.93033838 -7.14819861 3.57226085 -8.43676758 4.21289062 C-11.17686683 5.57686349 -13.9049799 6.94928462 -16.60546875 8.390625 C-18.36832868 9.32993498 -20.18037538 10.17601904 -22 11 C-22.99 10.67 -23.98 10.34 -25 10 C-20.79791927 6.65312559 -16.29955766 4.80802409 -11.375 2.75 C-10.50359375 2.37359375 -9.6321875 1.9971875 -8.734375 1.609375 C-7.90164063 1.25875 -7.06890625 0.908125 -6.2109375 0.546875 C-5.07084229 0.06492676 -5.07084229 0.06492676 -3.90771484 -0.42675781 C-2 -1 -2 -1 0 0 Z " fill="#24BC49" transform="translate(466,16)"/>
<path d="M0 0 C-4.09718532 1.86988327 -8.20375596 3.71817039 -12.3125 5.5625 C-13.47974609 6.09552734 -14.64699219 6.62855469 -15.84960938 7.17773438 C-17.52700195 7.92700195 -17.52700195 7.92700195 -19.23828125 8.69140625 C-20.26993408 9.15748291 -21.30158691 9.62355957 -22.36450195 10.10375977 C-25 11 -25 11 -28 10 C-23.21024282 6.91766095 -18.19371731 5.12138534 -12.86328125 3.18359375 C-9.92948371 2.18504969 -9.92948371 2.18504969 -8 0 C-4.69164744 -0.93312508 -3.32320026 -1.10773342 0 0 Z " fill="#28BD4F" transform="translate(308,145)"/>
<path d="M0 0 C0 4.14673024 -1.75777937 5.52949719 -4.375 8.6875 C-5.18710937 9.68136719 -5.99921875 10.67523438 -6.8359375 11.69921875 C-7.55007813 12.45847656 -8.26421875 13.21773437 -9 14 C-9.66 14 -10.32 14 -11 14 C-11 12.02 -11 10.04 -11 8 C-9.35 7.67 -7.7 7.34 -6 7 C-6.33 6.01 -6.66 5.02 -7 4 C-5.68 4 -4.36 4 -3 4 C-1.22590192 2.07977297 -1.22590192 2.07977297 0 0 Z " fill="#1FC34B" transform="translate(483,52)"/>
<path d="M0 0 C-4.01529357 3.10758093 -8.07465661 6.13847914 -12.3125 8.9375 C-12.94800781 9.35902344 -13.58351563 9.78054687 -14.23828125 10.21484375 C-16 11 -16 11 -19 10 C-17.75 8.5 -17.75 8.5 -16 7 C-14.68 7 -13.36 7 -12 7 C-11.34 5.68 -10.68 4.36 -10 3 C-9.34 3 -8.68 3 -8 3 C-7.67 2.34 -7.34 1.68 -7 1 C-2.44155844 -1.22077922 -2.44155844 -1.22077922 0 0 Z " fill="#1FC048" transform="translate(467,72)"/>
<path d="M0 0 C-0.47365575 4.26290179 -2.92238322 6.21548958 -6 9 C-9 11 -9 11 -12 11 C-12 10.34 -12 9.68 -12 9 C-10.68 8.67 -9.36 8.34 -8 8 C-7.9175 7.4225 -7.835 6.845 -7.75 6.25 C-6.39368324 2.18104973 -4.31919078 0 0 0 Z " fill="#18C245" transform="translate(127,258)"/>
<path d="M0 0 C-2.37377457 2.74858108 -4.63231666 3.73711875 -8 5 C-8.99 5.66 -9.98 6.32 -11 7 C-11.99 7 -12.98 7 -14 7 C-14.66 8.32 -15.32 9.64 -16 11 C-16 8 -16 8 -14.0625 5.5625 C-10.62411387 2.68548303 -4.54118386 -2.27059193 0 0 Z " fill="#1EBD4B" transform="translate(18,414)"/>
<path d="M0 0 C-4.8888857 3.37026725 -9.51000216 5.73879995 -15.21484375 7.421875 C-17.0030964 7.85147917 -17.0030964 7.85147917 -18 9 C-19.66617115 9.04063832 -21.33388095 9.042721 -23 9 C-19.7994019 5.7994019 -15.63389369 4.54655643 -11.5 2.8125 C-10.61957031 2.43158203 -9.73914063 2.05066406 -8.83203125 1.65820312 C-7.99027344 1.30306641 -7.14851562 0.94792969 -6.28125 0.58203125 C-5.50845703 0.25436768 -4.73566406 -0.0732959 -3.93945312 -0.41088867 C-2 -1 -2 -1 0 0 Z " fill="#2DBE55" transform="translate(163,284)"/>
<path d="M0 0 C0.66 0 1.32 0 2 0 C2 2.97 2 5.94 2 9 C-0.875 9.625 -0.875 9.625 -4 10 C-4.66 9.34 -5.32 8.68 -6 8 C-5.34 7.34 -4.68 6.68 -4 6 C-3.01 6 -2.02 6 -1 6 C-0.67 4.02 -0.34 2.04 0 0 Z " fill="#0FC73A" transform="translate(126,249)"/>
<path d="M0 0 C1 3 1 3 -0.58203125 6.5390625 C-1.31507119 7.90669419 -2.0590375 9.26851252 -2.8125 10.625 C-3.36647461 11.66527344 -3.36647461 11.66527344 -3.93164062 12.7265625 C-6.72542547 17.86271273 -6.72542547 17.86271273 -9 19 C-8.01 16.03 -7.02 13.06 -6 10 C-5.34 10 -4.68 10 -4 10 C-4 8.68 -4 7.36 -4 6 C-3.34 6 -2.68 6 -2 6 C-1.855625 5.195625 -1.71125 4.39125 -1.5625 3.5625 C-1 1 -1 1 0 0 Z " fill="#22B945" transform="translate(493,33)"/>
<path d="M0 0 C-0.61875 0.0825 -1.2375 0.165 -1.875 0.25 C-2.57625 0.4975 -3.2775 0.745 -4 1 C-4.268125 1.66 -4.53625 2.32 -4.8125 3 C-5.204375 3.66 -5.59625 4.32 -6 5 C-10.0440649 5.97357118 -13.0367776 6.14357298 -17 5 C-14.73392948 3.96724659 -12.46318061 2.94866449 -10.1875 1.9375 C-9.22360352 1.49567383 -9.22360352 1.49567383 -8.24023438 1.04492188 C-3.33984375 -1.11328125 -3.33984375 -1.11328125 0 0 Z " fill="#22C14A" transform="translate(54,399)"/>
<path d="M0 0 C-1.30636994 2.61273988 -2.28409758 2.97236124 -5 4 C-8.25 4.125 -8.25 4.125 -11 4 C-11 4.66 -11 5.32 -11 6 C-12.98 6.33 -14.96 6.66 -17 7 C-14.43471574 3.96098728 -11.57680059 2.75347776 -7.9375 1.25 C-6.87402344 0.80140625 -5.81054688 0.3528125 -4.71484375 -0.109375 C-2 -1 -2 -1 0 0 Z " fill="#24BE4B" transform="translate(166,351)"/>
<path d="M0 0 C0.99580078 0.24556641 0.99580078 0.24556641 2.01171875 0.49609375 C5.62883337 1.10603857 9.15860708 1.10795513 12.8125 1.0625 C13.50537109 1.05798828 14.19824219 1.05347656 14.91210938 1.04882812 C16.60811068 1.03713156 18.30406703 1.01919924 20 1 C16.97399366 4.02600634 14.23008375 4.17513525 10.125 4.25 C5.95476662 4.21951584 3.303418 3.75284833 0 1 C0 0.67 0 0.34 0 0 Z " fill="#26B84B" transform="translate(80,207)"/>
<path d="M0 0 C0.33 0.66 0.66 1.32 1 2 C0.29296875 3.83984375 0.29296875 3.83984375 -0.8125 5.9375 C-1.16957031 6.62714844 -1.52664063 7.31679687 -1.89453125 8.02734375 C-2.84989011 9.73213606 -3.91598646 11.3739797 -5 13 C-5.66 13 -6.32 13 -7 13 C-7 13.66 -7 14.32 -7 15 C-7.99 15.33 -8.98 15.66 -10 16 C-8.55797524 11.84848662 -6.4989562 8.70021555 -3.875 5.1875 C-3.15054687 4.21167969 -2.42609375 3.23585937 -1.6796875 2.23046875 C-0.84824219 1.12638672 -0.84824219 1.12638672 0 0 Z " fill="#2FBBCF" transform="translate(310,199)"/>
<path d="M0 0 C0 0.99 0 1.98 0 3 C-6.6169252 6.24043814 -12.73763698 8.69039355 -20 10 C-16.31899182 6.85176932 -12.16217266 5.17948825 -7.75 3.3125 C-7.00492187 2.99216797 -6.25984375 2.67183594 -5.4921875 2.34179688 C-3.66351009 1.55640337 -1.83202764 0.77754662 0 0 Z " fill="#2EC054" transform="translate(486,5)"/>
<path d="M0 0 C0 0.99 0 1.98 0 3 C-1.60875 2.938125 -1.60875 2.938125 -3.25 2.875 C-6.82321958 2.99410732 -7.99141147 3.44383352 -11 5 C-13.11328125 4.55859375 -13.11328125 4.55859375 -15 4 C-13.25705322 3.13153169 -11.50531337 2.28069373 -9.75 1.4375 C-8.77546875 0.96183594 -7.8009375 0.48617188 -6.796875 -0.00390625 C-3.90143703 -1.03510273 -2.80033839 -1.11346788 0 0 Z " fill="#1DC142" transform="translate(263,297)"/>
<path d="M0 0 C-0.875 3.875 -0.875 3.875 -2 5 C-4.01594582 5.23427778 -6.038474 5.41336124 -8.0625 5.5625 C-9.16722656 5.64628906 -10.27195313 5.73007813 -11.41015625 5.81640625 C-12.26480469 5.87699219 -13.11945313 5.93757812 -14 6 C-11.74402173 3.74402173 -9.95396133 3.03425808 -7 1.875 C-6.113125 1.52179688 -5.22625 1.16859375 -4.3125 0.8046875 C-2 0 -2 0 0 0 Z " fill="#1FC147" transform="translate(182,207)"/>
<path d="M0 0 C-2.61666628 2.61666628 -5.64348017 3.71634007 -9 5.125 C-9.64195312 5.40214844 -10.28390625 5.67929687 -10.9453125 5.96484375 C-15.73745382 8 -15.73745382 8 -18 8 C-18 7.34 -18 6.68 -18 6 C-17.01 6 -16.02 6 -15 6 C-15 5.34 -15 4.68 -15 4 C-13.6078125 3.566875 -13.6078125 3.566875 -12.1875 3.125 C-2.96052632 -0.13157895 -2.96052632 -0.13157895 0 0 Z " fill="#3BBCD7" transform="translate(228,455)"/>
<path d="M0 0 C-0.83144531 0.40992188 -1.66289063 0.81984375 -2.51953125 1.2421875 C-4.14955078 2.05042969 -4.14955078 2.05042969 -5.8125 2.875 C-6.89144531 3.40867188 -7.97039062 3.94234375 -9.08203125 4.4921875 C-12.07838265 5.97221139 -12.07838265 5.97221139 -15 8 C-16.32 7.34 -17.64 6.68 -19 6 C-16.40074504 4.80057395 -13.79654493 3.61527179 -11.1875 2.4375 C-10.08051758 1.92413086 -10.08051758 1.92413086 -8.95117188 1.40039062 C-8.23896484 1.08134766 -7.52675781 0.76230469 -6.79296875 0.43359375 C-6.1383667 0.13509521 -5.48376465 -0.16340332 -4.80932617 -0.47094727 C-3 -1 -3 -1 0 0 Z " fill="#2DC053" transform="translate(106,240)"/>
<path d="M0 0 C-0.99 1.485 -0.99 1.485 -2 3 C-4.32961443 3.35840222 -6.66365343 3.68848712 -9 4 C-10.051875 4.53625 -11.10375 5.0725 -12.1875 5.625 C-15.30564964 7.14942871 -15.86963495 7.00547057 -19 6 C-16.2120519 4.80303299 -13.42025583 3.61716986 -10.625 2.4375 C-9.8309375 2.09525391 -9.036875 1.75300781 -8.21875 1.40039062 C-7.45820313 1.08134766 -6.69765625 0.76230469 -5.9140625 0.43359375 C-4.8614624 -0.01415405 -4.8614624 -0.01415405 -3.78759766 -0.47094727 C-2 -1 -2 -1 0 0 Z " fill="#28C04F" transform="translate(425,34)"/>
<path d="M0 0 C3.96 0 7.92 0 12 0 C7.64218716 3.26835963 3.5719851 6 -2 6 C-2 5.34 -2 4.68 -2 4 C-1.01 4 -0.02 4 1 4 C0.67 2.68 0.34 1.36 0 0 Z " fill="#2CBDD8" transform="translate(188,467)"/>
<path d="M0 0 C2.31 0 4.62 0 7 0 C4.10600531 2.34211663 1.32844572 3.86862171 -2.125 5.25 C-3.42824219 5.78367187 -3.42824219 5.78367187 -4.7578125 6.328125 C-7 7 -7 7 -9 6 C-8.67 5.01 -8.34 4.02 -8 3 C-6.8553125 3.0309375 -6.8553125 3.0309375 -5.6875 3.0625 C-2.89814214 3.12942841 -2.89814214 3.12942841 0 2 C0 1.34 0 0.68 0 0 Z " fill="#20C044" transform="translate(195,369)"/>
<path d="M0 0 C1.65 0 3.3 0 5 0 C2.1237651 2.3223428 -0.63780422 3.86565842 -4.0625 5.25 C-4.91972656 5.60578125 -5.77695313 5.9615625 -6.66015625 6.328125 C-9 7 -9 7 -12 6 C-10 3 -10 3 -7.6171875 2.48828125 C-6.71226563 2.43027344 -5.80734375 2.37226563 -4.875 2.3125 C-3.96492188 2.24675781 -3.05484375 2.18101562 -2.1171875 2.11328125 C-1.06917969 2.05720703 -1.06917969 2.05720703 0 2 C0 1.34 0 0.68 0 0 Z " fill="#26C24A" transform="translate(107,339)"/>
<path d="M0 0 C3.88999932 0.5762962 6.14170537 2.36736021 9 5 C11.00796384 8.05975443 11 9.14485886 11 13 C10.34 13 9.68 13 9 13 C8.62875 11.7625 8.2575 10.525 7.875 9.25 C6.20991196 4.70519448 4.15440959 3.30800533 0 1 C0 0.67 0 0.34 0 0 Z " fill="#1CBD46" transform="translate(73,394)"/>
<path d="M0 0 C-2.73354237 2.73354237 -5.27785213 2.72579003 -9.00390625 3.33984375 C-9.99197266 3.66662109 -9.99197266 3.66662109 -11 4 C-11.33 4.99 -11.66 5.98 -12 7 C-12.99 7.33 -13.98 7.66 -15 8 C-14.8359375 6.17578125 -14.8359375 6.17578125 -14 4 C-11.6015625 2.48046875 -11.6015625 2.48046875 -8.625 1.1875 C-7.64789063 0.74792969 -6.67078125 0.30835938 -5.6640625 -0.14453125 C-3 -1 -3 -1 0 0 Z " fill="#1EBF48" transform="translate(111,375)"/>
<path d="M0 0 C2.31 0 4.62 0 7 0 C3.75136571 2.16575619 0.39377143 3.62352411 -3.1875 5.125 C-3.84169922 5.40214844 -4.49589844 5.67929687 -5.16992188 5.96484375 C-6.77879012 6.64597045 -8.38924215 7.32335403 -10 8 C-10 7.34 -10 6.68 -10 6 C-9.34 6 -8.68 6 -8 6 C-8 5.34 -8 4.68 -8 4 C-4.535 3.505 -4.535 3.505 -1 3 C-0.67 2.01 -0.34 1.02 0 0 Z " fill="#37BED7" transform="translate(373,389)"/>
<path d="M0 0 C0.66 0.33 1.32 0.66 2 1 C-1.73572939 5.82029598 -1.73572939 5.82029598 -5.3359375 6.33203125 C-7.5758033 6.31436669 -9.77120799 6.21850902 -12 6 C-9.48617788 4.32411859 -7.17052712 3.05969689 -4.4375 1.8125 C-3.65246094 1.44769531 -2.86742187 1.08289063 -2.05859375 0.70703125 C-1.37925781 0.47371094 -0.69992187 0.24039062 0 0 Z " fill="#2DB9D5" transform="translate(283,369)"/>
<path d="M0 0 C0.66 0.33 1.32 0.66 2 1 C1.2575 1.8971875 1.2575 1.8971875 0.5 2.8125 C-1.28276418 4.97029994 -1.28276418 4.97029994 -1 8 C-1.99 8.495 -1.99 8.495 -3 9 C-3.46751788 11.35599235 -3.46751788 11.35599235 -3.625 14.0625 C-3.69976562 14.98160156 -3.77453125 15.90070313 -3.8515625 16.84765625 C-3.90054688 17.55792969 -3.94953125 18.26820313 -4 19 C-4.33 19 -4.66 19 -5 19 C-6.08604688 13.6783703 -5.97530182 10.07934753 -4 5 C-1.875 2.0625 -1.875 2.0625 0 0 Z " fill="#25BD4E" transform="translate(147,358)"/>
<path d="M0 0 C1.67542976 0.28604898 3.34385343 0.61781233 5 1 C4.34 2.32 3.68 3.64 3 5 C0.03 5 -2.94 5 -6 5 C-5.195625 4.360625 -4.39125 3.72125 -3.5625 3.0625 C-1.7249496 1.59396498 -1.7249496 1.59396498 0 0 Z " fill="#18BBD5" transform="translate(341,342)"/>
<path d="M0 0 C2.31 0.33 4.62 0.66 7 1 C4.54074507 3.45925493 2.20353073 4.34371127 -1 5.6875 C-2.0725 6.14511719 -3.145 6.60273438 -4.25 7.07421875 C-5.1575 7.37972656 -6.065 7.68523437 -7 8 C-7.66 7.67 -8.32 7.34 -9 7 C-8.67 6.34 -8.34 5.68 -8 5 C-5.67843403 4.59270772 -3.3431213 4.25561323 -1 4 C-0.67 2.68 -0.34 1.36 0 0 Z " fill="#1CC147" transform="translate(260,340)"/>
<path d="M0 0 C-0.3125 1.9375 -0.3125 1.9375 -1 4 C-4 5 -4 5 -5.9375 4.4375 C-8.60357285 3.8719694 -9.72275075 4.61738438 -12 6 C-4.43243243 -2.21621622 -4.43243243 -2.21621622 0 0 Z " fill="#17C242" transform="translate(55,330)"/>
<path d="M0 0 C0 0.66 0 1.32 0 2 C-0.99 2 -1.98 2 -3 2 C-3.33 2.66 -3.66 3.32 -4 4 C-5.99117408 4.69258229 -7.9921136 5.35747635 -10 6 C-10.99 6.66 -11.98 7.32 -13 8 C-15.6875 8.125 -15.6875 8.125 -18 8 C-14.83936913 5.39667844 -11.6568348 3.85961424 -7.875 2.3125 C-6.82054687 1.87550781 -5.76609375 1.43851562 -4.6796875 0.98828125 C-2 0 -2 0 0 0 Z " fill="#2FC151" transform="translate(182,275)"/>
<path d="M0 0 C-2.26607052 1.03275341 -4.53681939 2.05133551 -6.8125 3.0625 C-7.77639648 3.50432617 -7.77639648 3.50432617 -8.75976562 3.95507812 C-13.66015625 6.11328125 -13.66015625 6.11328125 -17 5 C-11.77051822 1.17354991 -6.62155011 -2.00959709 0 0 Z " fill="#1EBE4D" transform="translate(357,124)"/>
<path d="M0 0 C1.65 0.33 3.3 0.66 5 1 C1.27074217 4.2428329 -3.30238735 6.5119901 -8 8 C-8.99 7.67 -9.98 7.34 -11 7 C-8.64031256 4.90250005 -7.45383006 4.03094296 -4.25 3.8125 C-3.13625 3.9053125 -3.13625 3.9053125 -2 4 C-2 3.34 -2 2.68 -2 2 C-1.34 2 -0.68 2 0 2 C0 1.34 0 0.68 0 0 Z " fill="#21C04B" transform="translate(402,100)"/>
<path d="M0 0 C0.66 1.32 1.32 2.64 2 4 C-1.44615385 8.8 -1.44615385 8.8 -4.25 9.8125 C-4.8275 9.874375 -5.405 9.93625 -6 10 C-4.6302836 6.00499382 -2.74277578 3.19990508 0 0 Z " fill="#22B9D6" transform="translate(156,436)"/>
<path d="M0 0 C0.37125 1.670625 0.37125 1.670625 0.75 3.375 C1.61005339 7.04615198 1.61005339 7.04615198 4.125 8.4375 C4.74375 8.623125 5.3625 8.80875 6 9 C5.01 9.33 4.02 9.66 3 10 C-2.58823529 6.08823529 -2.58823529 6.08823529 -3.875 2.6875 C-3.91625 2.130625 -3.9575 1.57375 -4 1 C-2 0 -2 0 0 0 Z " fill="#20BF4C" transform="translate(5,436)"/>
<path d="M0 0 C-2.26607052 1.03275341 -4.53681939 2.05133551 -6.8125 3.0625 C-7.77639648 3.50432617 -7.77639648 3.50432617 -8.75976562 3.95507812 C-13.66015625 6.11328125 -13.66015625 6.11328125 -17 5 C-15.3125 3 -15.3125 3 -13 1 C-10.5625 0.875 -10.5625 0.875 -8 1 C-7.13375 0.649375 -6.2675 0.29875 -5.375 -0.0625 C-3 -1 -3 -1 0 0 Z " fill="#1DBE47" transform="translate(73,425)"/>
<path d="M0 0 C-2.09836004 1.03271642 -4.20390891 2.05083717 -6.3125 3.0625 C-7.48425781 3.63097656 -8.65601563 4.19945312 -9.86328125 4.78515625 C-13 6 -13 6 -16 5 C-14.8125 3.5 -14.8125 3.5 -13 2 C-10.3125 1.8125 -10.3125 1.8125 -8 2 C-8 1.34 -8 0.68 -8 0 C-4.71303767 -0.79953138 -3.28976808 -1.09658936 0 0 Z " fill="#36BCD2" transform="translate(305,245)"/>
<path d="M0 0 C2.31 0 4.62 0 7 0 C4.47732009 1.68178661 2.18908177 2.90106742 -0.5625 4.125 C-1.34753906 4.47820312 -2.13257813 4.83140625 -2.94140625 5.1953125 C-5 6 -5 6 -7 6 C-7 5.34 -7 4.68 -7 4 C-6.34 4 -5.68 4 -5 4 C-4.67 3.01 -4.34 2.02 -4 1 C-2.68 1.33 -1.36 1.66 0 2 C0 1.34 0 0.68 0 0 Z " fill="#3ABCD4" transform="translate(329,231)"/>
<path d="M0 0 C1.65 0 3.3 0 5 0 C0.95001278 3.40198926 -3.63626649 6 -9 6 C-9 5.01 -9 4.02 -9 3 C-4.545 2.505 -4.545 2.505 0 2 C0 1.34 0 0.68 0 0 Z " fill="#36BED4" transform="translate(149,487)"/>
<path d="M0 0 C-2.89399469 2.34211663 -5.67155428 3.86862171 -9.125 5.25 C-10.42824219 5.78367187 -10.42824219 5.78367187 -11.7578125 6.328125 C-14 7 -14 7 -16 6 C-14.68 5.67 -13.36 5.34 -12 5 C-12 4.34 -12 3.68 -12 3 C-10.68 3 -9.36 3 -8 3 C-8 2.34 -8 1.68 -8 1 C-5.07175348 0.02391783 -3.04386724 -0.08226668 0 0 Z " fill="#37BAD3" transform="translate(345,404)"/>
<path d="M0 0 C0.33 0 0.66 0 1 0 C1 1.65 1 3.3 1 5 C0.34 5 -0.32 5 -1 5 C-1.027193 6.58323688 -1.04648306 8.16661062 -1.0625 9.75 C-1.07410156 10.63171875 -1.08570313 11.5134375 -1.09765625 12.421875 C-1.00826198 14.7818838 -0.66912821 16.74498524 0 19 C-2.24688791 17.22864392 -2.94459771 16.35088119 -3.3984375 13.4765625 C-3.31931843 3.85040938 -3.31931843 3.85040938 0 0 Z " fill="#27BC4B" transform="translate(42,336)"/>
<path d="M0 0 C0 3.83764027 -1.26535335 5.11486085 -3.5 8.1875 C-4.1496875 9.08855469 -4.799375 9.98960937 -5.46875 10.91796875 C-5.9740625 11.60503906 -6.479375 12.29210937 -7 13 C-7.33 12.01 -7.66 11.02 -8 10 C-7.34 9.34 -6.68 8.68 -6 8 C-6 6.68 -6 5.36 -6 4 C-5.01 4 -4.02 4 -3 4 C-3 3.34 -3 2.68 -3 2 C-2.01 1.34 -1.02 0.68 0 0 Z " fill="#24BD4D" transform="translate(296,313)"/>
<path d="M0 0 C0.99 0 1.98 0 3 0 C3 0.66 3 1.32 3 2 C2.34 2 1.68 2 1 2 C1.061875 3.11375 1.12375 4.2275 1.1875 5.375 C1.125625 6.57125 1.06375 7.7675 1 9 C0.01 9.66 -0.98 10.32 -2 11 C-2.33 9.68 -2.66 8.36 -3 7 C-2.01 7 -1.02 7 0 7 C-0.99 6.34 -1.98 5.68 -3 5 C-2.67 4.01 -2.34 3.02 -2 2 C-1.34 2 -0.68 2 0 2 C0 1.34 0 0.68 0 0 Z " fill="#0FC93D" transform="translate(321,271)"/>
<path d="M0 0 C-0.33 1.32 -0.66 2.64 -1 4 C-5.29 4.66 -9.58 5.32 -14 6 C-9.64218716 2.73164037 -5.5719851 0 0 0 Z " fill="#32C456" transform="translate(87,247)"/>
<path d="M0 0 C-2.25597827 2.25597827 -4.04603867 2.96574192 -7 4.125 C-7.886875 4.47820312 -8.77375 4.83140625 -9.6875 5.1953125 C-12 6 -12 6 -14 6 C-14 5.34 -14 4.68 -14 4 C-13.01 4 -12.02 4 -11 4 C-11 3.34 -11 2.68 -11 2 C-7.17010894 0.19769832 -4.21878192 -0.19622241 0 0 Z " fill="#2FBAD4" transform="translate(354,223)"/>
<path d="M0 0 C-3.7559214 3.42931954 -8.23466745 4.56429083 -13 6 C-13 5.34 -13 4.68 -13 4 C-12.01 3.67 -11.02 3.34 -10 3 C-9.5875 2.484375 -9.175 1.96875 -8.75 1.4375 C-6.02123151 -0.8039884 -3.39786009 -0.1923317 0 0 Z " fill="#32BDD9" transform="translate(315,417)"/>
<path d="M0 0 C-5.36812782 3.86904957 -9.36501601 5.64455443 -16 6 C-13.10600531 3.65788337 -10.32844572 2.13137829 -6.875 0.75 C-6.00617188 0.39421875 -5.13734375 0.0384375 -4.2421875 -0.328125 C-2 -1 -2 -1 0 0 Z " fill="#26BC51" transform="translate(301,88)"/>
<path d="M0 0 C0.33 0.66 0.66 1.32 1 2 C0.15695313 1.98839844 -0.68609375 1.97679687 -1.5546875 1.96484375 C-2.65039062 1.95582031 -3.74609375 1.94679688 -4.875 1.9375 C-5.96554688 1.92589844 -7.05609375 1.91429687 -8.1796875 1.90234375 C-10.95177546 1.80255697 -10.95177546 1.80255697 -13 3 C-13.66 2.34 -14.32 1.68 -15 1 C-10.22575151 -1.70540748 -5.20051239 -1.19419173 0 0 Z " fill="#25B74B" transform="translate(126,372)"/>
<path d="M0 0 C-0.61875 0.0825 -1.2375 0.165 -1.875 0.25 C-4.18437567 0.81258459 -4.18437567 0.81258459 -5.25 3.0625 C-5.4975 3.701875 -5.745 4.34125 -6 5 C-8.64 5 -11.28 5 -14 5 C-9.94779194 1.59614523 -5.27662976 -1.75887659 0 0 Z " fill="#24BE4D" transform="translate(248,303)"/>
<path d="M0 0 C2.64 0.33 5.28 0.66 8 1 C4.63576723 3.96052484 1.30840713 4.92289822 -3 6 C-3 5.34 -3 4.68 -3 4 C-2.34 3.67 -1.68 3.34 -1 3 C-0.67 2.01 -0.34 1.02 0 0 Z " fill="#22C24A" transform="translate(360,117)"/>
<path d="M0 0 C1.98 0.66 3.96 1.32 6 2 C3.3104472 4.6895528 0.54672583 5.69331154 -3 7 C-3.99 6.67 -4.98 6.34 -6 6 C-5.67 5.34 -5.34 4.68 -5 4 C-3.35 4 -1.7 4 0 4 C0 2.68 0 1.36 0 0 Z " fill="#36BCD7" transform="translate(176,473)"/>
<path d="M0 0 C0.33 0.66 0.66 1.32 1 2 C0.67 2.66 0.34 3.32 0 4 C0.66 4 1.32 4 2 4 C1.67 5.32 1.34 6.64 1 8 C-0.65 8.33 -2.3 8.66 -4 9 C-2.94124926 5.59687262 -1.99097846 2.98646769 0 0 Z " fill="#24BAD3" transform="translate(149,446)"/>
<path d="M0 0 C0.33 0.99 0.66 1.98 1 3 C0.071875 3.5775 -0.85625 4.155 -1.8125 4.75 C-4.63145447 6.73985022 -6.04562867 8.26388013 -8 11 C-8.66 11 -9.32 11 -10 11 C-8.55218207 7.55571735 -6.72305391 5.63869038 -3.875 3.25 C-3.15054688 2.63640625 -2.42609375 2.0228125 -1.6796875 1.390625 C-0.84824219 0.70226562 -0.84824219 0.70226562 0 0 Z " fill="#3BBAD2" transform="translate(169,423)"/>
<path d="M0 0 C-2.67477931 2.67477931 -5.492975 3.6464114 -9 5 C-9.99 5 -10.98 5 -12 5 C-9.28085049 -1.02097391 -6.0998139 -0.0983841 0 0 Z " fill="#22BE47" transform="translate(237,354)"/>
<path d="M0 0 C2.64 0.33 5.28 0.66 8 1 C2 5 2 5 -2 5 C-1.34 3.35 -0.68 1.7 0 0 Z " fill="#18C340" transform="translate(89,276)"/>
<path d="M0 0 C-2.93828597 2.50298434 -5.17902761 3.46930939 -9 4 C-8.625 2.0625 -8.625 2.0625 -8 0 C-5.13822943 -1.43088528 -3.06624227 -0.59991697 0 0 Z " fill="#1DC146" transform="translate(115,269)"/>
<path d="M0 0 C1.60031344 3.20062687 0.03173691 5.72271806 -1 9 C-2.65 9.33 -4.3 9.66 -6 10 C-4.6302836 6.00499382 -2.74277578 3.19990508 0 0 Z " fill="#23BACC" transform="translate(294,222)"/>
<path d="M0 0 C1.69141656 0.08963062 3.37959602 0.24577676 5.0625 0.4375 C6.44115234 0.59025391 6.44115234 0.59025391 7.84765625 0.74609375 C8.55792969 0.82988281 9.26820313 0.91367188 10 1 C7.23776722 3.76223278 4.79293383 3.57856291 1 4 C1 3.34 1 2.68 1 2 C0.34 1.67 -0.32 1.34 -1 1 C-0.67 0.67 -0.34 0.34 0 0 Z " fill="#0FC63A" transform="translate(365,114)"/>
<path d="M0 0 C-1.95585325 1.00484204 -3.91476237 2.00373805 -5.875 3 C-6.96554687 3.556875 -8.05609375 4.11375 -9.1796875 4.6875 C-12 6 -12 6 -14 6 C-14 5.34 -14 4.68 -14 4 C-13.01 4 -12.02 4 -11 4 C-11 3.34 -11 2.68 -11 2 C-9.54494642 1.47007308 -8.08581873 0.9513211 -6.625 0.4375 C-5.40683594 0.00244141 -5.40683594 0.00244141 -4.1640625 -0.44140625 C-2 -1 -2 -1 0 0 Z " fill="#36BED4" transform="translate(394,383)"/>
<path d="M0 0 C0.33 0 0.66 0 1 0 C0.40380045 4.86896303 -0.56976822 9.32790951 -2 14 C-2.99 13.67 -3.98 13.34 -5 13 C-3.35 8.71 -1.7 4.42 0 0 Z " fill="#29B5CD" transform="translate(364,310)"/>
<path d="M0 0 C-6.07877934 3.24201565 -11.18401613 3.33278764 -18 3 C-18 2.67 -18 2.34 -18 2 C-15.03 2 -12.06 2 -9 2 C-9 1.34 -9 0.68 -9 0 C-3.375 -1.125 -3.375 -1.125 0 0 Z " fill="#25BA4C" transform="translate(85,283)"/>
<path d="M0 0 C-0.9375 2 -0.9375 2 -3 4 C-6.02534949 4.36475845 -8.96663814 4.22893297 -12 4 C-9.94577945 1.94577945 -8.66990976 1.31862408 -6 0.3125 C-5.29875 0.04050781 -4.5975 -0.23148438 -3.875 -0.51171875 C-2 -1 -2 -1 0 0 Z " fill="#22BF47" transform="translate(201,200)"/>
<path d="M0 0 C0 0.99 0 1.98 0 3 C-3.22791555 5.1519437 -4.28400809 5.20086443 -8 5 C-8.33 5.66 -8.66 6.32 -9 7 C-9.66 6.34 -10.32 5.68 -11 5 C-7.37 3.35 -3.74 1.7 0 0 Z " fill="#3EBED3" transform="translate(388,146)"/>
<path d="M0 0 C-0.33 0.99 -0.66 1.98 -1 3 C-2.65204456 3.70211894 -4.31923769 4.36971413 -6 5 C-6.33 5.66 -6.66 6.32 -7 7 C-7 6.34 -7 5.68 -7 5 C-8.32 4.67 -9.64 4.34 -11 4 C-9.5437455 3.32880451 -8.08492133 2.66318193 -6.625 2 C-5.81289062 1.62875 -5.00078125 1.2575 -4.1640625 0.875 C-2 0 -2 0 0 0 Z " fill="#1EC24E" transform="translate(187,136)"/>
<path d="M0 0 C0.99 0.33 1.98 0.66 3 1 C-0.96 4.465 -0.96 4.465 -5 8 C-5.66 7.67 -6.32 7.34 -7 7 C-6.67 6.34 -6.34 5.68 -6 5 C-5.34 5 -4.68 5 -4 5 C-4 4.34 -4 3.68 -4 3 C-3.01 3 -2.02 3 -1 3 C-0.67 2.01 -0.34 1.02 0 0 Z " fill="#2DB6D0" transform="translate(401,374)"/>
<path d="M0 0 C0.33 0.66 0.66 1.32 1 2 C-0.3125 4.625 -0.3125 4.625 -2 7 C-2.66 7 -3.32 7 -4 7 C-4 6.34 -4 5.68 -4 5 C-4.99 4.34 -5.98 3.68 -7 3 C-4.69 2.01 -2.38 1.02 0 0 Z " fill="#35BD5F" transform="translate(329,266)"/>
<path d="M0 0 C-1.95421035 0.86355778 -3.91351347 1.71559934 -5.875 2.5625 C-6.96554687 3.03816406 -8.05609375 3.51382813 -9.1796875 4.00390625 C-10.11039062 4.33261719 -11.04109375 4.66132813 -12 5 C-12.66 4.67 -13.32 4.34 -14 4 C-13.01 3.67 -12.02 3.34 -11 3 C-11 2.34 -11 1.68 -11 1 C-3.375 -1.125 -3.375 -1.125 0 0 Z " fill="#38BDD7" transform="translate(368,218)"/>
<path d="M0 0 C0.33 1.32 0.66 2.64 1 4 C-3.43076923 7.07692308 -3.43076923 7.07692308 -6.3125 6.6875 C-6.869375 6.460625 -7.42625 6.23375 -8 6 C-7.05125 5.38125 -6.1025 4.7625 -5.125 4.125 C-2.05554891 2.18029031 -2.05554891 2.18029031 0 0 Z " fill="#1EBE4A" transform="translate(216,189)"/>
<path d="M0 0 C0.99 0.33 1.98 0.66 3 1 C0.36 3.64 -2.28 6.28 -5 9 C-5.66 8.01 -6.32 7.02 -7 6 C-6.01 5.67 -5.02 5.34 -4 5 C-3.67 4.01 -3.34 3.02 -3 2 C-2.01 2 -1.02 2 0 2 C0 1.34 0 0.68 0 0 Z " fill="#19BC44" transform="translate(249,171)"/>
<path d="M0 0 C0.66 0.33 1.32 0.66 2 1 C1.814375 1.61875 1.62875 2.2375 1.4375 2.875 C0.76313824 5.04160178 0.76313824 5.04160178 2 7 C0.02 7 -1.96 7 -4 7 C-3.01 6.01 -2.02 5.02 -1 4 C-1.99 3.34 -2.98 2.68 -4 2 C-2.125 0.9375 -2.125 0.9375 0 0 Z " fill="#1BBCD8" transform="translate(340,167)"/>
<path d="M0 0 C-2.02196167 2.02196167 -3.25864486 2.67551358 -5.875 3.6875 C-6.55304688 3.95949219 -7.23109375 4.23148437 -7.9296875 4.51171875 C-10.31107782 5.07336741 -11.70430191 4.76694846 -14 4 C-12.23494565 3.13395466 -10.46271926 2.28251358 -8.6875 1.4375 C-7.70136719 0.96183594 -6.71523437 0.48617187 -5.69921875 -0.00390625 C-3 -1 -3 -1 0 0 Z " fill="#29BD50" transform="translate(244,113)"/>
<path d="M0 0 C-0.99 0.33 -1.98 0.66 -3 1 C-4.21869929 3.50447516 -4.21869929 3.50447516 -5 6 C-5.33 5.01 -5.66 4.02 -6 3 C-8.01508358 2.26676204 -8.01508358 2.26676204 -10 2 C-8.71211992 1.46987262 -7.41953322 0.9511671 -6.125 0.4375 C-5.40570313 0.14746094 -4.68640625 -0.14257812 -3.9453125 -0.44140625 C-2 -1 -2 -1 0 0 Z " fill="#1DC347" transform="translate(74,322)"/>
<path d="M0 0 C-1.12451727 2.9719385 -2.22293791 5.33440687 -4 8 C-4.66 8 -5.32 8 -6 8 C-6 6.02 -6 4.04 -6 2 C-2.25 0 -2.25 0 0 0 Z " fill="#29BE51" transform="translate(319,282)"/>
<path d="M0 0 C1.32 0.66 2.64 1.32 4 2 C0.37 4.31 -3.26 6.62 -7 9 C-5.04783565 5.09567131 -3.12613393 2.96160056 0 0 Z " fill="#21BB45" transform="translate(260,162)"/>
<path d="M0 0 C0.763125 0.309375 1.52625 0.61875 2.3125 0.9375 C4.18789677 1.67893593 6.08684652 2.36228217 8 3 C8.33 3.99 8.66 4.98 9 6 C3.50847458 5.38983051 3.50847458 5.38983051 1.125 3.5625 C0 2 0 2 0 0 Z " fill="#1EBE4A" transform="translate(94,401)"/>
<path d="M0 0 C0.33 0.66 0.66 1.32 1 2 C4.465 1.505 4.465 1.505 8 1 C6.875 2.5 6.875 2.5 5 4 C1.8125 4.1875 1.8125 4.1875 -1 4 C-1 1 -1 1 0 0 Z " fill="#0DCB3D" transform="translate(229,307)"/>
<path d="M0 0 C2.02350324 3.03525486 2.32124018 4.19426202 2.625 7.6875 C2.69976562 8.49574219 2.77453125 9.30398438 2.8515625 10.13671875 C2.90054688 10.75160156 2.94953125 11.36648438 3 12 C1.02 12.99 1.02 12.99 -1 14 C-0.9278125 13.32453125 -0.855625 12.6490625 -0.78125 11.953125 C-0.6884375 11.06109375 -0.595625 10.1690625 -0.5 9.25 C-0.4071875 8.36828125 -0.314375 7.4865625 -0.21875 6.578125 C0.05636313 3.76695165 0.05636313 3.76695165 0 0 Z " fill="#1CC248" transform="translate(204,249)"/>
<path d="M0 0 C0 0.66 0 1.32 0 2 C-0.66 2 -1.32 2 -2 2 C-2.33 2.99 -2.66 3.98 -3 5 C-5.97 4.505 -5.97 4.505 -9 4 C-6.10130984 1.70103884 -3.84906588 0 0 0 Z " fill="#22BD47" transform="translate(134,159)"/>
<path d="M0 0 C-4.44 2.96 -4.44 2.96 -7 4 C-7.99 3.67 -8.98 3.34 -10 3 C-9.34 3 -8.68 3 -8 3 C-8 2.01 -8 1.02 -8 0 C-5.13822943 -1.43088528 -3.06624227 -0.59991697 0 0 Z " fill="#1DC148" transform="translate(251,348)"/>
<path d="M0 0 C-1.75 3.875 -1.75 3.875 -4 5 C-5.67654729 4.72057545 -7.34608154 4.39171753 -9 4 C-6.43425105 1.43425105 -3.68548192 0 0 0 Z " fill="#1BC044" transform="translate(120,165)"/>
<path d="M0 0 C-1.4562545 0.67119549 -2.91507867 1.33681807 -4.375 2 C-5.59316406 2.556875 -5.59316406 2.556875 -6.8359375 3.125 C-9 4 -9 4 -11 4 C-11 3.34 -11 2.68 -11 2 C-7.06425135 -0.62383243 -4.54354105 -1.51451368 0 0 Z " fill="#32BFD1" transform="translate(267,439)"/>
<path d="M0 0 C1.32 0.66 2.64 1.32 4 2 C2.69593116 4.01920337 1.36176581 6.01924973 0 8 C-0.33 8 -0.66 8 -1 8 C-1.125 2.25 -1.125 2.25 0 0 Z " fill="#26BCD0" transform="translate(411,360)"/>
<path d="M0 0 C0 0.66 0 1.32 0 2 C-6.96428571 5.34821429 -6.96428571 5.34821429 -11 4 C-9.5437455 3.32880451 -8.08492133 2.66318193 -6.625 2 C-5.81289063 1.62875 -5.00078125 1.2575 -4.1640625 0.875 C-2 0 -2 0 0 0 Z " fill="#32B8CE" transform="translate(321,353)"/>
<path d="M0 0 C0 2 0 2 -1.125 3.6875 C-3 5 -3 5 -6.1875 4.6875 C-7.115625 4.460625 -8.04375 4.23375 -9 4 C-6.43425105 1.43425105 -3.68548192 0 0 0 Z " fill="#1CC247" transform="translate(64,325)"/>
<path d="M0 0 C0 0.99 0 1.98 0 3 C-0.99 3 -1.98 3 -3 3 C-3 3.66 -3 4.32 -3 5 C-3.99 5.33 -4.98 5.66 -6 6 C-6.99 5.34 -7.98 4.68 -9 4 C-6.03 2.68 -3.06 1.36 0 0 Z " fill="#29BD4F" transform="translate(319,270)"/>
<path d="M0 0 C0 0.99 0 1.98 0 3 C-0.7425 3.268125 -1.485 3.53625 -2.25 3.8125 C-4.86636554 4.94229421 -6.80187111 6.20893202 -9 8 C-7.47364599 4.11473526 -4.49771687 0 0 0 Z " fill="#25B74D" transform="translate(85,180)"/>
<path d="M0 0 C0.66 0.33 1.32 0.66 2 1 C0 4 0 4 -2.1640625 4.51171875 C-2.97617188 4.56972656 -3.78828125 4.62773437 -4.625 4.6875 C-5.85089844 4.78611328 -5.85089844 4.78611328 -7.1015625 4.88671875 C-7.72804688 4.92410156 -8.35453125 4.96148437 -9 5 C-6.32239719 2.32239719 -3.52050129 1.32018799 0 0 Z " fill="#2DBC4E" transform="translate(94,175)"/>
<path d="M0 0 C0.33 0.66 0.66 1.32 1 2 C-4.29230769 5.07692308 -4.29230769 5.07692308 -7.875 4.6875 C-8.57625 4.460625 -9.2775 4.23375 -10 4 C-7.80202597 1.80202597 -6.82453855 1.54102483 -3.875 0.875 C-2.59625 0.58625 -1.3175 0.2975 0 0 Z " fill="#1BBBD4" transform="translate(399,143)"/>
<path d="M0 0 C2.97 0.495 2.97 0.495 6 1 C3.3144406 3.6855594 0.62378672 4.06049974 -3 5 C-2.01 3.35 -1.02 1.7 0 0 Z " fill="#1EC046" transform="translate(68,354)"/>
<path d="M0 0 C-6 4 -6 4 -10 4 C-10 3.34 -10 2.68 -10 2 C-6.5980513 -0.09350689 -3.94727588 -0.17942163 0 0 Z " fill="#23BF4A" transform="translate(169,315)"/>
<path d="M0 0 C-4.455 1.485 -4.455 1.485 -9 3 C-9 2.01 -9 1.02 -9 0 C-5.32431536 -0.91892116 -3.83619425 -0.95904856 0 0 Z " fill="#1DC045" transform="translate(116,202)"/>
<path d="M0 0 C0 3.69418201 -1.28179295 5.77836178 -3 9 C-3.96516243 5.99727245 -4.22393475 3.95784231 -3 1 C-2.01 0.67 -1.02 0.34 0 0 Z " fill="#17BB45" transform="translate(240,183)"/>
<path d="M0 0 C0.66 0.33 1.32 0.66 2 1 C-0.97 2.65 -3.94 4.3 -7 6 C-7.66 5.34 -8.32 4.68 -9 4 C-7.54618103 3.30300448 -6.08677047 2.61766134 -4.625 1.9375 C-3.40683594 1.36322266 -3.40683594 1.36322266 -2.1640625 0.77734375 C-1.44992187 0.52082031 -0.73578125 0.26429687 0 0 Z " fill="#23BB4C" transform="translate(404,41)"/>
<path d="M0 0 C1.98 0 3.96 0 6 0 C3.06171403 2.50298434 0.82097239 3.46930939 -3 4 C-3 3.34 -3 2.68 -3 2 C-2.01 2 -1.02 2 0 2 C0 1.34 0 0.68 0 0 Z " fill="#1DBF46" transform="translate(205,365)"/>
</svg>
