<?xml version="1.0" encoding="UTF-8"?>
<svg version="1.1" xmlns="http://www.w3.org/2000/svg" width="500" height="500">
<path d="M0 0 C1.74294484 23.74278196 -8.53359103 45.12550553 -23.3125 63.125 C-24.199375 64.07375 -25.08625 65.0225 -26 66 C-26.66 66 -27.32 66 -28 66 C-28 66.66 -28 67.32 -28 68 C-30.0546875 69.953125 -30.0546875 69.953125 -32.875 72.25 C-34.23238281 73.37148437 -34.23238281 73.37148437 -35.6171875 74.515625 C-44.30099057 81.11274711 -54.05111228 85.44414763 -64 89.75 C-65.48692305 90.39947204 -66.9736528 91.04938678 -68.46020508 91.69970703 C-81.95463024 97.59100457 -95.49585172 103.37515274 -109.03588867 109.16064453 C-120.98285679 114.26687672 -132.90661684 119.42372045 -144.8125 124.625 C-148.02599903 126.02874349 -151.23951116 127.43245686 -154.453125 128.8359375 C-155.24177948 129.18036896 -156.03043396 129.52480042 -156.84298706 129.87966919 C-165.57386535 133.69050003 -174.31764898 137.47137054 -183.0625 141.25 C-184.595226 141.91265323 -186.12794095 142.57533201 -187.66064453 143.23803711 C-194.27616779 146.09787222 -200.89279351 148.95507848 -207.51350403 151.80288696 C-210.2604024 152.98490112 -213.00635962 154.16909115 -215.75216675 155.3536377 C-217.61324981 156.15550838 -219.47566558 156.95428377 -221.33813477 157.75292969 C-240.6029716 166.06718431 -255.51663179 175.07523465 -264.21720409 194.96244335 C-267.20078109 202.72846141 -268.44564699 210.14524988 -268.43237305 218.4284668 C-268.4425647 219.40543015 -268.45275635 220.38239349 -268.46325684 221.38896179 C-268.49313281 224.57577437 -268.50261369 227.76228515 -268.51171875 230.94921875 C-268.52858428 233.17553181 -268.54673702 235.40183545 -268.56611633 237.62812805 C-268.61341877 243.45589252 -268.6433557 249.28361879 -268.66955566 255.11151123 C-268.69946123 261.07116228 -268.74595705 267.03068203 -268.79101562 272.99023438 C-268.87682382 284.66008728 -268.94426873 296.32996738 -269 308 C-264.29221086 305.98439547 -259.58463145 303.96830211 -254.87722778 301.95179749 C-253.28308471 301.26899197 -251.68888899 300.58630934 -250.09463501 299.90376282 C-239.67578238 295.44302607 -229.26825083 290.95758477 -218.875 286.4375 C-202.95950054 279.52394676 -186.98378682 272.75390648 -171 266 C-170.67 266.66 -170.34 267.32 -170 268 C-176.91780269 278.22185339 -183.91798433 288.36911196 -191.18115234 298.34912109 C-194.42122848 302.803369 -197.61623469 307.28484424 -200.7722168 311.79907227 C-212.92400436 329.16289614 -222.65919134 337.82092406 -242.125 346.0625 C-243.88684143 346.81780302 -245.64822973 347.57416384 -247.40917969 348.33154297 C-250.94865554 349.85235072 -254.49036652 351.36774556 -258.03417969 352.87841797 C-262.36606986 354.72646038 -266.6897251 356.59261478 -271.0078125 358.47265625 C-271.6191806 358.7387973 -272.23054871 359.00493835 -272.86044312 359.27914429 C-273.46159943 359.54087433 -274.06275574 359.80260437 -274.68212891 360.07226562 C-286.24643894 365.10504322 -297.83247979 370.08794544 -309.42175293 375.06292725 C-310.95031287 375.71917498 -312.47871962 376.37577967 -314.00695801 377.03277588 C-320.57618834 379.85605946 -327.14650696 382.67876149 -333.7578125 385.40234375 C-334.85826904 385.85661743 -334.85826904 385.85661743 -335.98095703 386.32006836 C-341.00612121 388.01233949 -345.41104106 387.49985651 -350.25 385.375 C-354.05093132 383.24677716 -356.057749 380.96219203 -358 377 C-359.34065574 371.73313818 -358.96566006 368.05455444 -357 363 C-354.11791106 358.73669297 -351.30464647 356.78559944 -346.69140625 354.5703125 C-346.08059708 354.27561066 -345.4697879 353.98090881 -344.84046936 353.67727661 C-337.37948832 350.13496509 -329.69092677 347.11610568 -321.99829102 344.11962891 C-320.10744372 343.3800954 -318.22352299 342.62475876 -316.33984375 341.8671875 C-315.24019287 341.43519043 -314.14054199 341.00319336 -313.00756836 340.55810547 C-308.46133381 338.20287624 -304.77323872 334.89102109 -303 330 C-302.26714895 325.31316192 -302.55597372 321.85633639 -304.75 317.625 C-308.33532261 313.44212362 -310.80993122 311.46870607 -316.46972656 310.85375977 C-322.17591873 311.18355609 -327.34986618 314.06866959 -332.5 316.375 C-333.85202584 316.96351918 -335.20491634 317.55005531 -336.55859375 318.13476562 C-339.48551887 319.40142818 -342.40805626 320.67757483 -345.328125 321.95996094 C-352.67273187 325.17749115 -360.0624204 328.2896575 -367.44570923 331.41708374 C-370.00532089 332.50225584 -372.56377294 333.59011484 -375.12182617 334.67895508 C-386.94095888 339.70968245 -398.76924665 344.71830734 -410.62963867 349.65112305 C-416.04023871 351.90442435 -421.43525222 354.17505026 -426.78125 356.578125 C-427.64516357 356.960896 -428.50907715 357.34366699 -429.39916992 357.73803711 C-430.92197193 358.41601907 -432.43878746 359.1077672 -433.9465332 359.81860352 C-439.21490787 362.14666853 -444.26726357 362.80027945 -450 362 C-454.04071146 360.26850181 -456.99477378 358.06805286 -460 354.875 C-461.6054572 350.25931056 -461.63860109 345.82498598 -461 341 C-457.45776728 333.78434076 -451.61660442 330.55441437 -444.4140625 327.59375 C-443.66203049 327.27685211 -442.90999847 326.95995422 -442.13517761 326.63345337 C-439.6347905 325.58164218 -437.12990617 324.54099767 -434.625 323.5 C-432.83906739 322.75071724 -431.05351229 322.00053414 -429.26831055 321.24951172 C-425.47128257 319.65264664 -421.67281369 318.05927586 -417.87353516 316.46777344 C-409.14799101 312.80753458 -400.4475171 309.08845761 -391.74438477 305.37533569 C-374.71806397 298.11426702 -357.67582079 290.8908233 -340.625 283.6875 C-339.70095367 283.29685364 -338.77690735 282.90620728 -337.82485962 282.50372314 C-336.03213416 281.74598876 -334.23920572 280.98873438 -332.44606018 280.23199463 C-330.73768096 279.51079662 -329.02985109 278.7882957 -327.32261658 278.06439209 C-323.27219476 276.3524453 -319.21276352 274.67930402 -315.11621094 273.08056641 C-314.34103119 272.77423782 -313.56585144 272.46790924 -312.7671814 272.15229797 C-311.32687876 271.58563293 -309.88248824 271.02919048 -308.43325806 270.48576355 C-303.15270997 268.3975682 -299.59321947 265.60708641 -296.625 260.75 C-295.51267511 255.85577047 -295.60422879 251.24827818 -298.3046875 246.8984375 C-301.76676993 242.71293485 -303.91209652 241.20483334 -309.50390625 240.65625 C-316.10956558 240.7407638 -321.88881572 244.10451977 -327.77929688 246.80078125 C-334.91592238 249.92522466 -340.80081033 251.50536988 -348.3125 248.8125 C-352.70199984 245.85213964 -355.73433405 242.17772433 -357 237 C-357.2412833 231.7543223 -356.87449716 227.80534157 -353.67578125 223.52734375 C-349.39812756 218.84838309 -343.94790205 216.8233241 -338.1875 214.4375 C-337.02710205 213.93790771 -335.8667041 213.43831543 -334.67114258 212.92358398 C-328.58822854 210.30691827 -322.46850913 207.77745169 -316.35551453 205.23210144 C-313.36334199 203.9845201 -310.37375487 202.73079233 -307.38394165 201.47756958 C-305.22436144 200.57785701 -303.05933196 199.69242156 -300.89331055 198.80834961 C-299.54718757 198.24895781 -298.20123219 197.68916247 -296.85546875 197.12890625 C-295.67621826 196.64494385 -294.49696777 196.16098145 -293.28198242 195.66235352 C-288.72573692 193.35457433 -284.6799062 191.0397186 -283 186 C-282.47561428 181.00544092 -282.44996904 177.12043344 -284.6875 172.5625 C-287.63482552 169.29654469 -289.64550119 167.24778164 -294.16229248 166.77244568 C-300.46095264 166.64006113 -305.02045528 167.71472322 -310.703125 170.34765625 C-311.51972092 170.7072644 -312.33631683 171.06687256 -313.17765808 171.43737793 C-315.87600179 172.62946713 -318.56250175 173.84618365 -321.25 175.0625 C-324.14437331 176.34728518 -327.04166792 177.62533801 -329.93894958 178.90354919 C-331.99554912 179.81165313 -334.05116288 180.72199242 -336.10585022 181.63441467 C-347.95171655 186.88992777 -359.87732301 191.95599116 -371.80578613 197.02023315 C-375.40113799 198.54705828 -378.99518211 200.07692243 -382.58886719 201.60766602 C-384.80790634 202.55233152 -387.02698016 203.49691562 -389.24609375 204.44140625 C-390.26189011 204.873927 -391.27768646 205.30644775 -392.32426453 205.7520752 C-393.26453995 206.15172485 -394.20481537 206.55137451 -395.17358398 206.96313477 C-395.98907211 207.30997818 -396.80456024 207.65682159 -397.64476013 208.01417542 C-403.73506379 210.5633727 -408.34449106 211.86532299 -415 211 C-419.81477644 208.59261178 -423.70957093 205.22607267 -425.75 200.125 C-426.44306261 194.2339678 -426.41024504 190.00879741 -423 185 C-416.027599 177.97442406 -405.94241411 174.84540441 -397 171.125 C-395.14808036 170.34449415 -393.29669536 169.56271873 -391.44580078 168.77978516 C-387.43207537 167.08275767 -383.41631963 165.39065695 -379.39941406 163.70117188 C-369.37561633 159.47807065 -359.38530794 155.1765804 -349.39089966 150.88452148 C-343.44532257 148.33183875 -337.49803654 145.78314484 -331.55078125 143.234375 C-330.35478806 142.72173096 -329.15879486 142.20908691 -327.92655945 141.6809082 C-320.63652135 138.5566455 -313.34481707 135.43630589 -306.05183411 132.31892395 C-279.70961873 121.05892077 -253.40516265 109.72475189 -227.19261169 98.16603088 C-218.26450667 94.23106706 -209.32039089 90.3329708 -200.375 86.4375 C-199.57262909 86.088013 -198.77025818 85.738526 -197.943573 85.37844849 C-193.91011294 83.62160674 -189.87649689 81.86512363 -185.84277344 80.10888672 C-178.53985686 76.92903598 -171.23851768 73.74556647 -163.93704224 70.56240845 C-161.50616693 69.50268842 -159.0752369 68.44309407 -156.64428711 67.38354492 C-149.24799585 64.15978743 -141.85188439 60.93561963 -134.45648193 57.70982361 C-130.2835834 55.88966352 -126.11056409 54.06978047 -121.9375 52.25 C-121.11795837 51.89259735 -120.29841675 51.5351947 -119.45404053 51.16696167 C-109.01784616 46.61625197 -98.5750822 42.08122272 -88.125 37.5625 C-77.12069055 32.80314559 -66.13837175 27.99500427 -55.16256714 23.1703186 C-47.44302141 19.77722934 -39.7219852 16.38753357 -32 13 C-31.21135559 12.65400757 -30.42271118 12.30801514 -29.61016846 11.95153809 C-25.25218878 10.04038158 -20.89245266 8.13334251 -16.52978516 6.23291016 C-15.22795001 5.665195 -13.92667068 5.09620343 -12.62597656 4.52587891 C-10.85762787 3.750782 -9.08707994 2.98070824 -7.31640625 2.2109375 C-6.33099854 1.78087402 -5.34559082 1.35081055 -4.33032227 0.90771484 C-2 0 -2 0 0 0 Z " fill="#03CD34" transform="translate(500,0)"/>
<path d="M0 0 C0.07015117 26.78217998 0.12301813 53.56434615 0.15543652 80.34659958 C0.17089053 92.78269272 0.19195206 105.21872871 0.22631836 117.65478516 C0.25626555 128.49689595 0.27558566 139.33896534 0.28226548 150.18111634 C0.28616871 155.91935749 0.29531138 161.65748019 0.31719017 167.39568329 C0.33763933 172.80303574 0.34381679 178.21022158 0.33932304 183.61760902 C0.34014448 185.59602325 0.34605963 187.57444338 0.35761642 189.55282402 C0.46768705 209.37757407 -2.75097178 226.29329253 -16.9621582 241.01464844 C-18.29653971 242.35471591 -19.64765265 243.67806526 -21 245 C-21.84111328 245.88945312 -21.84111328 245.88945312 -22.69921875 246.796875 C-34.63833231 258.45396226 -54.61448078 263.69513457 -69.73242188 270.16992188 C-76.37000372 273.01394503 -82.9969642 275.88257667 -89.62463379 278.74960327 C-91.95236972 279.75643168 -94.28036948 280.76264817 -96.60839844 281.76879883 C-109.71884996 287.43678808 -122.81272149 293.14250956 -135.90405273 298.85449219 C-145.59686722 303.08324345 -155.29475801 307.29984333 -165 311.5 C-176.02882926 316.27341748 -187.04760844 321.06951311 -198.0625 325.875 C-214.38816379 332.99684721 -230.72355974 340.09616784 -247.0625 347.1875 C-248.77471237 347.93081573 -248.77471237 347.93081573 -250.52151489 348.68914795 C-256.79638963 351.41306227 -263.07262143 354.13380482 -269.35040283 356.85101318 C-271.76648403 357.89873677 -274.18026427 358.95154665 -276.59326172 360.00634766 C-277.87333675 360.56290751 -279.15344401 361.11939326 -280.43359375 361.67578125 C-281.48474365 362.13509033 -282.53589355 362.59439941 -283.61889648 363.06762695 C-286 364 -286 364 -288 364 C-289.35391653 339.93037276 -279.62387382 317.83738451 -263.7578125 299.9765625 C-254.5331038 289.88484593 -243.63639561 282.8436887 -231.1875 277.3125 C-229.70431274 276.64263062 -229.70431274 276.64263062 -228.19116211 275.95922852 C-213.18211085 269.22550912 -198.06239303 262.73633079 -182.96875 256.1953125 C-170.30995256 250.70889084 -157.67553515 245.16770856 -145.05053711 239.60400391 C-136.43715369 235.81066183 -127.8107412 232.05154526 -119.16015625 228.34375 C-116.5018729 227.2001962 -113.84389274 226.05594061 -111.18600464 224.91146851 C-109.50824344 224.19151405 -107.82902927 223.47493403 -106.14822388 222.76211548 C-87.0724245 214.67153344 -70.54842147 204.90248859 -62.13427734 184.94677734 C-57.19003362 171.67016552 -56.82915054 158.67564556 -56.68359375 144.71484375 C-56.66298883 143.04618354 -56.64199152 141.37752814 -56.62062073 139.70887756 C-56.56576503 135.34424766 -56.5161968 130.97957354 -56.46777344 126.61486816 C-56.41728966 122.15010707 -56.36174474 117.68540916 -56.30664062 113.22070312 C-56.19950643 104.48052237 -56.09796459 95.74028832 -56 87 C-56.81190796 87.35191406 -57.62381592 87.70382813 -58.46032715 88.06640625 C-85.74016011 99.89020767 -85.74016011 99.89020767 -95.96875 104.3125 C-96.68491486 104.62215698 -97.40107971 104.93181396 -98.13894653 105.25085449 C-101.8016591 106.83428305 -105.464851 108.41659617 -109.12841797 109.99804688 C-116.00382282 112.96706282 -122.87693959 115.94059054 -129.73480225 118.94995117 C-132.53741283 120.1797874 -135.34157416 121.40606649 -138.14575195 122.63232422 C-139.45473798 123.20616612 -140.76286085 123.78198141 -142.07006836 124.35986328 C-143.8596974 125.1509699 -145.65242696 125.93505157 -147.4453125 126.71875 C-148.45094238 127.16154297 -149.45657227 127.60433594 -150.49267578 128.06054688 C-153 129 -153 129 -156 129 C-154.18997431 124.96303259 -151.63996245 121.43020039 -149.125 117.8125 C-148.6395874 117.1105249 -148.1541748 116.4085498 -147.65405273 115.68530273 C-142.6536682 108.46928439 -137.58730003 101.29994272 -132.51171875 94.13671875 C-131.01465927 92.02071995 -129.52216813 89.90157948 -128.03125 87.78125 C-122.30003026 79.63435322 -116.52392402 71.52327664 -110.65356445 63.47583008 C-108.19240866 60.09095192 -105.77264243 56.69983658 -103.49609375 53.1875 C-103.11219482 52.60258789 -102.7282959 52.01767578 -102.33276367 51.41503906 C-101.33771189 49.88488051 -100.36313887 48.34145586 -99.390625 46.796875 C-93.17194292 39.52142342 -84.15642864 36.00269629 -75.5625 32.25 C-74.32507678 31.70276302 -73.08786021 31.15505857 -71.85083008 30.60693359 C-58.5737614 24.74442857 -45.22143309 19.05016643 -31.87133789 13.35644531 C-30.5874543 12.80887573 -30.5874543 12.80887573 -29.27763367 12.25024414 C-27.59731939 11.53371161 -25.91691166 10.81739821 -24.23640442 10.10131836 C-18.05396279 7.46243328 -11.89239065 4.77792278 -5.74882507 2.04971313 C-1.10680529 0 -1.10680529 0 0 0 Z " fill="#FD3131" transform="translate(424,131)"/>
<path d="M0 0 C4.35442364 2.26655744 6.82458657 4.97339189 8.99609375 9.31640625 C10.27934293 13.66175346 10.20088883 16.6451335 8.87109375 21.00390625 C4.54618712 28.64457464 -1.00400711 31.01470517 -8.87890625 34.31640625 C-9.95793213 34.77700439 -11.03695801 35.23760254 -12.14868164 35.7121582 C-14.49926337 36.71345838 -16.85198432 37.70974783 -19.20654297 38.70166016 C-22.52339128 40.10434727 -25.8203881 41.54917657 -29.11437988 43.00460815 C-31.87457984 44.22129335 -34.64159546 45.42192977 -37.40997314 46.61987305 C-38.7511971 47.20354302 -40.08993741 47.79295788 -41.42596436 48.38842773 C-50.16436123 52.27264775 -57.95271798 55.44552805 -67.37890625 52.12890625 C-70.84126751 49.73822824 -73.1241943 47.07583015 -75.00390625 43.31640625 C-75.55876987 37.83144292 -75.99042629 31.63402689 -72.7331543 26.90185547 C-63.14151262 18.10782454 -46.6513548 13.84373655 -34.81640625 8.94140625 C-32.83380574 8.11501177 -30.8513826 7.28819163 -28.86914062 6.4609375 C-21.61770122 3.44053233 -21.61770122 3.44053233 -18.06958008 1.97119141 C-16.99707756 1.52654037 -16.99707756 1.52654037 -15.90290833 1.07290649 C-10.69166727 -1.0030813 -5.42880365 -1.85193107 0 0 Z " fill="#03CD34" transform="translate(75.00390625,393.68359375)"/>
<path d="M0 0 C5.09459883 2.73598826 8.1667679 5.5003037 10 11 C10.77245664 17.53422335 9.94066541 21.71121222 6 27 C1.33787983 30.49757927 -3.6370553 32.80457473 -8.94921875 35.109375 C-9.80248245 35.48104797 -10.65574615 35.85272095 -11.53486633 36.23565674 C-13.33448904 37.01555383 -15.13564543 37.79192038 -16.93823242 38.56494141 C-19.66973804 39.74234379 -22.38819197 40.94691447 -25.10742188 42.15234375 C-42.71650911 49.8080868 -42.71650911 49.8080868 -51 48 C-55.40824285 45.99625325 -58.07525853 43.41441085 -60.3046875 39.05859375 C-61.66241283 35.03881145 -61.68109799 31.16226552 -61 27 C-57.57563388 20.15126776 -52.28113449 16.88716494 -45.40625 13.94140625 C-44.77827515 13.67037582 -44.15030029 13.3993454 -43.5032959 13.12010193 C-42.17693145 12.54933623 -40.84897304 11.98226187 -39.51953125 11.41870117 C-37.53039277 10.57538533 -35.54611175 9.72145723 -33.5625 8.86523438 C-27.35433371 6.19632252 -21.11541991 3.6001795 -14.83984375 1.09375 C-13.32571899 0.48756836 -13.32571899 0.48756836 -11.78100586 -0.13085938 C-7.61072647 -1.43418609 -4.12756287 -1.3841928 0 0 Z " fill="#04CC34" transform="translate(118,238)"/>
<path d="M0 0 C4.14141162 2.55929931 7.20609421 5.41464267 9 10 C9.6773018 15.21364875 9.63590295 19.65482068 7.375 24.4375 C2.79093932 29.38346021 -2.68766935 31.96131435 -8.875 34.3125 C-9.54402344 34.58900391 -10.21304688 34.86550781 -10.90234375 35.15039062 C-16.04458393 37.1171241 -19.6024216 37.12402003 -25 36 C-29.96998041 33.51500979 -33.16771637 30.27946129 -35 25 C-35.87822037 19.33597196 -35.25603559 14.82791484 -32 10 C-24.53087997 3.14173737 -10.06185704 -4.1076495 0 0 Z " fill="#03CC34" transform="translate(126,372)"/>
<path d="M0 0 C0.04673553 26.83400323 0.08199648 53.66800035 0.10362434 80.50203609 C0.11393377 92.96173908 0.12798776 105.42141677 0.15087891 117.88110352 C0.17082295 128.74186313 0.18371887 139.60260441 0.18817699 150.46338183 C0.19078263 156.21323545 0.1969002 161.96303665 0.21146011 167.71287346 C0.22505999 173.12757914 0.22921775 178.54221093 0.22621536 183.95693207 C0.22676445 185.94143895 0.23072751 187.92594836 0.23841095 189.91044044 C0.24840984 192.62677977 0.24595089 195.34284268 0.24050903 198.05918884 C0.24633472 198.83839957 0.2521604 199.61761029 0.25816262 200.42043346 C0.22901807 205.82896785 -0.64348907 210.76920337 -2 216 C-2.33 216 -2.66 216 -3 216 C-2.979375 214.9275 -2.95875 213.855 -2.9375 212.75 C-2.9857984 209.85209576 -3.13155885 207.71387859 -4 205 C-3.34 204.67 -2.68 204.34 -2 204 C-1.505 104.01 -1.505 104.01 -1 2 C-1.66 1.67 -2.32 1.34 -3 1 C-1 0 -1 0 0 0 Z " fill="#E93B3B" transform="translate(424,131)"/>
<path d="M0 0 C0.33 0.66 0.66 1.32 1 2 C0.29296875 3.875 0.29296875 3.875 -0.8125 6 C-1.16957031 6.70125 -1.52664063 7.4025 -1.89453125 8.125 C-3 10 -3 10 -5 12 C-5.24253813 14.21072977 -5.24253813 14.21072977 -5.125 16.625 C-5.09792969 17.85089844 -5.09792969 17.85089844 -5.0703125 19.1015625 C-5.04710937 19.72804687 -5.02390625 20.35453125 -5 21 C-3.35 21.33 -1.7 21.66 0 22 C-3.36913649 24.81183572 -7.05178335 26.50075001 -11.0625 28.1875 C-11.99932617 28.59645508 -11.99932617 28.59645508 -12.95507812 29.01367188 C-15.809691 30.22924342 -17.86439599 31 -21 31 C-19.72779695 28.34987972 -18.34775782 25.91543495 -16.6796875 23.49609375 C-16.23020752 22.84253906 -15.78072754 22.18898437 -15.31762695 21.515625 C-14.84156006 20.82984375 -14.36549316 20.1440625 -13.875 19.4375 C-13.38797607 18.73238281 -12.90095215 18.02726562 -12.39916992 17.30078125 C-8.35607491 11.46716326 -4.21996013 5.70722401 0 0 Z " fill="#EC393A" transform="translate(289,229)"/>
<path d="M0 0 C2 1 2 1 3 3 C3.99 4.485 3.99 4.485 5 6 C4.34 6 3.68 6 3 6 C3.33 7.32 3.66 8.64 4 10 C5.65 10.33 7.3 10.66 9 11 C9 10.34 9 9.68 9 9 C10.65 8.34 12.3 7.68 14 7 C14.495 7.845625 14.99 8.69125 15.5 9.5625 C17.66350139 12.20744216 17.66350139 12.20744216 20.046875 12.109375 C22.04733113 11.83980999 24.02723747 11.42743188 26 11 C22.44786861 14.55213139 18.96116821 15.15780521 14.0625 15.3125 C8.32563421 15.17611092 4.79045105 13.79045105 0.6875 9.6875 C-1.17661191 6.71872918 -1.67767966 4.46494363 -2 1 C-1.34 0.67 -0.68 0.34 0 0 Z " fill="#0FC73B" transform="translate(2,432)"/>
<path d="M0 0 C0.33 0 0.66 0 1 0 C1.04647606 10.64913007 1.08194653 21.29823574 1.10362434 31.94744682 C1.11403206 36.89306106 1.12813592 41.83860557 1.15087891 46.78417969 C1.1727151 51.5628337 1.18459125 56.34142092 1.18975449 61.120121 C1.19343097 62.9372373 1.20060992 64.75435021 1.21146011 66.57143784 C1.34629131 90.10164014 1.34629131 90.10164014 -3.125 95.625 C-4.053125 96.305625 -4.053125 96.305625 -5 97 C-4.79503906 96.16597656 -4.59007812 95.33195312 -4.37890625 94.47265625 C-4.10949219 93.34730469 -3.84007812 92.22195313 -3.5625 91.0625 C-3.29566406 89.96035156 -3.02882813 88.85820312 -2.75390625 87.72265625 C-0.74007929 77.77873351 -0.78888348 67.81350687 -0.68359375 57.71484375 C-0.66298883 56.04618354 -0.64199152 54.37752814 -0.62062073 52.70887756 C-0.56576503 48.34424766 -0.5161968 43.97957354 -0.46777344 39.61486816 C-0.41728966 35.15010707 -0.36174474 30.68540916 -0.30664062 26.22070312 C-0.19950643 17.48052237 -0.09796459 8.74028832 0 0 Z " fill="#EF3D3C" transform="translate(368,218)"/>
<path d="M0 0 C0.33 0 0.66 0 1 0 C1 16.83 1 33.66 1 51 C7.27 48.36 13.54 45.72 20 43 C20.66 43.33 21.32 43.66 22 44 C19.60490662 46.89932357 17.68754757 47.50168276 14 48 C14 48.66 14 49.32 14 50 C8.4044118 53.49724262 7.3413594 52.91766992 0 52 C0 34.84 0 17.68 0 0 Z " fill="#37BC52" transform="translate(230,257)"/>
<path d="M0 0 C0.33 0.66 0.66 1.32 1 2 C-3.95 8.93 -3.95 8.93 -9 16 C-10 12 -10 12 -11 8 C-11.99 8.495 -11.99 8.495 -13 9 C-14.99960012 9.039992 -17.00047242 9.04346799 -19 9 C-16.9654959 6.9654959 -15.70645577 6.32946725 -13.0859375 5.2734375 C-12.32539063 4.9640625 -11.56484375 4.6546875 -10.78125 4.3359375 C-9.59015625 3.86027344 -9.59015625 3.86027344 -8.375 3.375 C-7.57320313 3.05015625 -6.77140625 2.7253125 -5.9453125 2.390625 C-3.96536943 1.58921947 -1.9829179 0.79401638 0 0 Z " fill="#0EC73C" transform="translate(329,266)"/>
<path d="M0 0 C0.66 0.33 1.32 0.66 2 1 C1.875 2.8125 1.875 2.8125 1 5 C-3.49672966 8.03267814 -5.84023164 7.89735102 -11 7 C-13.99342603 8.66301446 -15.07289069 10.10933604 -17 13 C-17.556875 12.79375 -18.11375 12.5875 -18.6875 12.375 C-21.67869404 11.88994151 -23.22998138 12.85145569 -26 14 C-28.8125 14.125 -28.8125 14.125 -31 14 C-27.19074981 10.19074981 -21.51096866 8.70392842 -16.56884766 6.66723633 C-14.50410511 5.81419601 -12.44539013 4.94765053 -10.38671875 4.08007812 C-9.08107375 3.53823144 -7.77509502 2.99718808 -6.46875 2.45703125 C-5.27701172 1.96178955 -4.08527344 1.46654785 -2.85742188 0.95629883 C-1.91447266 0.64072021 -0.97152344 0.3251416 0 0 Z " fill="#1DC446" transform="translate(199,199)"/>
<path d="M0 0 C0 0.33 0 0.66 0 1 C-0.70125 1.03738281 -1.4025 1.07476562 -2.125 1.11328125 C-10.60541672 1.70091882 -16.89901696 2.68863823 -23 9 C-25.1875 9.5625 -25.1875 9.5625 -28 10 C-32.31018986 11.25314779 -36.33749235 12.64999596 -40.3125 14.75 C-43.32190521 16.14972335 -43.98041673 15.95287489 -47 15 C-43.35844113 13.35923405 -39.71455004 11.72376713 -36.06860352 10.09277344 C-34.23268925 9.27024572 -32.39854728 8.44376578 -30.56445312 7.6171875 C-9.38650836 -1.84652624 -9.38650836 -1.84652624 0 0 Z " fill="#26C14C" transform="translate(118,238)"/>
<path d="M0 0 C0.66 0 1.32 0 2 0 C1.76228882 1.65805664 1.76228882 1.65805664 1.51977539 3.34960938 C0.89522299 8.36584037 0.77521586 13.35624021 0.68359375 18.40625 C0.66281265 19.3715564 0.64203156 20.33686279 0.62062073 21.3314209 C0.55571038 24.38754787 0.49651484 27.44375408 0.4375 30.5 C0.39425901 32.58334123 0.35064302 34.66667471 0.30664062 36.75 C0.20008975 41.833254 0.09866085 46.91658699 0 52 C-0.33 52 -0.66 52 -1 52 C-4.45679012 8.91358025 -4.45679012 8.91358025 0 0 Z " fill="#24C048" transform="translate(231,200)"/>
<path d="M0 0 C4.23546793 3.20013133 4.77790693 7.08732759 5.8125 12.125 C6.14106555 13.45951623 6.47262768 14.79331847 6.8125 16.125 C5.8225 16.62 5.8225 16.62 4.8125 17.125 C4.65394531 16.46113281 4.49539062 15.79726562 4.33203125 15.11328125 C2.8501942 9.50522389 1.56562617 5.80867278 -3.1875 2.125 C-10.28955433 -0.24235144 -15.48422682 1.30682248 -22.0859375 4.25 C-24.1875 5.125 -24.1875 5.125 -26.1875 5.125 C-26.1875 4.465 -26.1875 3.805 -26.1875 3.125 C-18.34459638 -1.89445832 -8.98879451 -2.65838816 0 0 Z " fill="#21BE4A" transform="translate(200.1875,239.875)"/>
<path d="M0 0 C0.33 0.66 0.66 1.32 1 2 C-0.31600101 4.56620197 -1.60532964 6.61994706 -3.6875 8.625 C-5.34523787 10.04486722 -5.34523787 10.04486722 -5 13 C-6.32 13.33 -7.64 13.66 -9 14 C-8.6596875 15.11375 -8.6596875 15.11375 -8.3125 16.25 C-8 19 -8 19 -9.3125 21.3125 C-9.869375 21.869375 -10.42625 22.42625 -11 23 C-11.66 23 -12.32 23 -13 23 C-13.66 25.31 -14.32 27.62 -15 30 C-15.66 30 -16.32 30 -17 30 C-13.56814573 18.36982719 -7.8549147 9.19064893 0 0 Z " fill="#E53E3F" transform="translate(158,434)"/>
<path d="M0 0 C0 0.66 0 1.32 0 2 C-2.97 3.32 -5.94 4.64 -9 6 C-9 6.99 -9 7.98 -9 9 C-11.60582371 9.93065133 -12.64198224 10.14917407 -15.25 9.0625 C-15.8275 8.711875 -16.405 8.36125 -17 8 C-17.33 8.66 -17.66 9.32 -18 10 C-20.90259811 11.3749149 -22.76138705 12 -26 12 C-26 12.66 -26 13.32 -26 14 C-27.98 14 -29.96 14 -32 14 C-29.47953018 11.47953018 -27.03104784 10.58434013 -23.75 9.1796875 C-23.13608398 8.91616486 -22.52216797 8.65264221 -21.88964844 8.38113403 C-20.5927932 7.82581281 -19.29491293 7.27288016 -17.99609375 6.72216797 C-16.00502624 5.8771332 -14.01797855 5.0231472 -12.03125 4.16796875 C-10.77106296 3.62967044 -9.51065362 3.09189221 -8.25 2.5546875 C-7.10015625 2.06468262 -5.9503125 1.57467773 -4.765625 1.06982422 C-2 0 -2 0 0 0 Z " fill="#22C24B" transform="translate(342,69)"/>
<path d="M0 0 C2.24817505 5.79498537 -1.66671689 11.70362728 -4 17 C-7.51869884 24.35552661 -11.77997864 30.74524068 -17 37 C-17 34 -17 34 -16 31 C-15.34 30.67 -14.68 30.34 -14 30 C-13.835 29.34 -13.67 28.68 -13.5 28 C-13.335 27.34 -13.17 26.68 -13 26 C-12.34 25.67 -11.68 25.34 -11 25 C-10.27840576 23.35636866 -9.60648579 21.68949614 -9 20 C-8.34 20 -7.68 20 -7 20 C-6.7834375 18.8553125 -6.7834375 18.8553125 -6.5625 17.6875 C-6 15 -6 15 -5 12 C-4.34 12 -3.68 12 -3 12 C-2.86722656 11.38511719 -2.73445313 10.77023438 -2.59765625 10.13671875 C-2.33275391 8.92435547 -2.33275391 8.92435547 -2.0625 7.6875 C-1.80146484 6.48673828 -1.80146484 6.48673828 -1.53515625 5.26171875 C-1 3 -1 3 0 0 Z " fill="#23BD4A" transform="translate(496,23)"/>
<path d="M0 0 C-1 3 -1 3 -3.8125 4.5625 C-4.864375 5.036875 -5.91625 5.51125 -7 6 C-7.639375 6.350625 -8.27875 6.70125 -8.9375 7.0625 C-12.83896375 8.83589261 -16.7107525 10 -21 10 C-17.2429421 6.70810165 -13.39878665 4.62860436 -8.8125 2.75 C-8.18408203 2.481875 -7.55566406 2.21375 -6.90820312 1.9375 C-2.28687022 0 -2.28687022 0 0 0 Z " fill="#19C245" transform="translate(64,325)"/>
<path d="M0 0 C0.66 0.33 1.32 0.66 2 1 C1.01 1.33 0.02 1.66 -1 2 C-0.67 2.99 -0.34 3.98 0 5 C-6.625 7.875 -6.625 7.875 -10 9 C-10 8.34 -10 7.68 -10 7 C-11.65 7 -13.3 7 -15 7 C-12.0356239 5.02374927 -9.21212254 3.70113094 -5.9375 2.3125 C-4.87402344 1.85488281 -3.81054688 1.39726562 -2.71484375 0.92578125 C-1.81894531 0.62027344 -0.92304687 0.31476563 0 0 Z " fill="#0EC63C" transform="translate(79,318)"/>
<path d="M0 0 C2.56400777 2.56400777 2.32633634 3.68782015 2.375 7.25 C2.2689704 12.3195403 1.54089771 15.17955773 -2 19 C-5.0625 21.4375 -5.0625 21.4375 -8 23 C-8.99 22.67 -9.98 22.34 -11 22 C-10.16855469 21.56300781 -10.16855469 21.56300781 -9.3203125 21.1171875 C-4.69211761 18.52540832 -4.69211761 18.52540832 -1.5625 14.375 C-0.76695151 9.60170909 -0.32634001 4.82639696 0 0 Z " fill="#20BF48" transform="translate(133,380)"/>
<path d="M0 0 C1.25535606 2.85308196 0.91306168 4.45049858 0.3125 7.5625 C-0.95959912 10.3515624 -1.80520444 10.92191263 -4.69921875 12.08203125 C-7.79045916 12.85389079 -10.85888462 13.46968182 -14 14 C-15.66735821 14.32985677 -17.33428566 14.66193989 -19 15 C-16.3774665 12.71953608 -13.74361474 11.42925704 -10.5625 10.125 C-6.52013479 8.38684955 -3.83080576 6.45004452 -1 3 C-0.67 2.01 -0.34 1.02 0 0 Z " fill="#29BD4B" transform="translate(197,330)"/>
<path d="M0 0 C0.33 0 0.66 0 1 0 C1 1.98 1 3.96 1 6 C1.99 6.33 2.98 6.66 4 7 C2.68 7.99 1.36 8.98 0 10 C-0.33 9.34 -0.66 8.68 -1 8 C-1.66 8.66 -2.32 9.32 -3 10 C-3 11.32 -3 12.64 -3 14 C-5.97 13.67 -8.94 13.34 -12 13 C-9 11 -9 11 -6.5625 9.875 C-2.98696712 7.25875643 -1.70382867 4.00732889 0 0 Z " fill="#15C540" transform="translate(204,258)"/>
<path d="M0 0 C0.33 0.66 0.66 1.32 1 2 C-3.95 8.93 -3.95 8.93 -9 16 C-9.33 14.68 -9.66 13.36 -10 12 C-10.33 11.34 -10.66 10.68 -11 10 C-9.68 10 -8.36 10 -7 10 C-6.67 9.01 -6.34 8.02 -6 7 C-5.01 6.01 -4.02 5.02 -3 4 C-5.97 4.66 -8.94 5.32 -12 6 C-9.71540242 3.71540242 -7.87462656 3.02870252 -4.875 1.875 C-3.96492188 1.52179688 -3.05484375 1.16859375 -2.1171875 0.8046875 C-1.06917969 0.40636719 -1.06917969 0.40636719 0 0 Z " fill="#35BA57" transform="translate(329,266)"/>
<path d="M0 0 C-0.125 1.8125 -0.125 1.8125 -1 4 C-3.86903633 5.84893452 -5.85397601 7.06194724 -9.3125 6.875 C-11 6 -11 6 -12 3 C-10.3789897 2.30314502 -8.75303934 1.61777139 -7.125 0.9375 C-6.22007812 0.55464844 -5.31515625 0.17179688 -4.3828125 -0.22265625 C-2 -1 -2 -1 0 0 Z " fill="#12C539" transform="translate(201,200)"/>
<path d="M0 0 C-6.61727664 6.40004281 -11.83615187 8.10853966 -21 8 C-18.0165614 5.0165614 -14.36637984 3.89650948 -10.5 2.3125 C-9.71496094 1.97927734 -8.92992187 1.64605469 -8.12109375 1.30273438 C-7.36957031 0.99271484 -6.61804688 0.68269531 -5.84375 0.36328125 C-5.15474609 0.07751221 -4.46574219 -0.20825684 -3.75585938 -0.50268555 C-2 -1 -2 -1 0 0 Z " fill="#23BF49" transform="translate(176,142)"/>
<path d="M0 0 C-9.405 3.96 -9.405 3.96 -19 8 C-19.33 7.34 -19.66 6.68 -20 6 C-18.35 5.67 -16.7 5.34 -15 5 C-15 3.35 -15 1.7 -15 0 C-14.07767578 0.01740234 -14.07767578 0.01740234 -13.13671875 0.03515625 C-11.92435547 0.04869141 -11.92435547 0.04869141 -10.6875 0.0625 C-9.88699219 0.07410156 -9.08648437 0.08570313 -8.26171875 0.09765625 C-0.68807339 -0.2293578 -0.68807339 -0.2293578 0 0 Z " fill="#1CC644" transform="translate(54,433)"/>
<path d="M0 0 C0 0.66 0 1.32 0 2 C-0.96099609 2.36351562 -0.96099609 2.36351562 -1.94140625 2.734375 C-7.25384557 4.79284627 -12.13335901 7.03769679 -17 10 C-17 10.66 -17 11.32 -17 12 C-18.98 11.34 -20.96 10.68 -23 10 C-20.90010963 7.90010963 -19.42791106 7.19291926 -16.71875 6.0546875 C-15.87699219 5.70019531 -15.03523438 5.34570312 -14.16796875 4.98046875 C-13.28753906 4.61566406 -12.40710938 4.25085938 -11.5 3.875 C-10.61957031 3.50246094 -9.73914063 3.12992187 -8.83203125 2.74609375 C-2.26353594 0 -2.26353594 0 0 0 Z " fill="#29C151" transform="translate(310,275)"/>
<path d="M0 0 C-3.14487876 2.66105126 -6.10134989 3.75574996 -10 5 C-10.99 5.66 -11.98 6.32 -13 7 C-14.32 7 -15.64 7 -17 7 C-17 7.99 -17 8.98 -17 10 C-19.97 9.505 -19.97 9.505 -23 9 C-19.24367049 5.74585358 -14.92159479 4.10372908 -10.375 2.25 C-9.21097656 1.75693359 -9.21097656 1.75693359 -8.0234375 1.25390625 C-7.2809375 0.94839844 -6.5384375 0.64289062 -5.7734375 0.328125 C-5.09716309 0.0487207 -4.42088867 -0.23068359 -3.72412109 -0.51855469 C-2 -1 -2 -1 0 0 Z " fill="#1DC048" transform="translate(425,34)"/>
<path d="M0 0 C0 4.62 0 9.24 0 14 C-0.33 14 -0.66 14 -1 14 C-1.33 11.36 -1.66 8.72 -2 6 C-4.97 5.67 -7.94 5.34 -11 5 C-7.72709962 2.33319229 -4.35126896 0 0 0 Z " fill="#1ECA49" transform="translate(500,0)"/>
<path d="M0 0 C3.74670984 2.66213594 5.89541254 4.48123313 7 9 C7.41335432 13.90748315 7.48971501 17.64299874 5 22 C4.4375 20.0625 4.4375 20.0625 4 18 C4.33 17.67 4.66 17.34 5 17 C5.29879824 13.31482173 4.82883086 11.17639044 3 8 C0 2.23076923 0 2.23076923 0 0 Z " fill="#24C14C" transform="translate(121,240)"/>
<path d="M0 0 C2 1 2 1 3 3 C3.99 4.485 3.99 4.485 5 6 C4.34 6 3.68 6 3 6 C4.39759905 9.54518884 4.39759905 9.54518884 6 13 C1.79030081 11.49653601 0.08139861 8.85444186 -2 5 C-1.81353683 2.70028762 -1.62542316 1.62542316 0 0 Z " fill="#15C645" transform="translate(2,432)"/>
<path d="M0 0 C0.66 0.33 1.32 0.66 2 1 C1.01 1.33 0.02 1.66 -1 2 C-1.33 2.66 -1.66 3.32 -2 4 C-4.62581138 5.57548683 -5.87099787 6 -9 6 C-9.33 6.66 -9.66 7.32 -10 8 C-13.81995829 9.61287128 -16.05432816 10.20681069 -20 9 C-16.71411543 7.46643899 -13.42046261 5.95035562 -10.125 4.4375 C-9.18785156 3.99986328 -8.25070312 3.56222656 -7.28515625 3.11132812 C-6.38925781 2.70205078 -5.49335938 2.29277344 -4.5703125 1.87109375 C-3.74289551 1.48880615 -2.91547852 1.10651855 -2.06298828 0.71264648 C-1.38220215 0.47747314 -0.70141602 0.2422998 0 0 Z " fill="#E54844" transform="translate(287,367)"/>
<path d="M0 0 C0 0.66 0 1.32 0 2 C-0.66 2 -1.32 2 -2 2 C-2.33 3.65 -2.66 5.3 -3 7 C-2.34 7.33 -1.68 7.66 -1 8 C-6.75 7.125 -6.75 7.125 -9 6 C-10.66619446 5.9603287 -12.33391013 5.95615553 -14 6 C-11.47732009 4.31821339 -9.18908177 3.09893258 -6.4375 1.875 C-5.65246094 1.52179688 -4.86742187 1.16859375 -4.05859375 0.8046875 C-2 0 -2 0 0 0 Z " fill="#0ECC3E" transform="translate(134,159)"/>
<path d="M0 0 C-0.66 0 -1.32 0 -2 0 C-2 0.66 -2 1.32 -2 2 C-2.99 2.33 -3.98 2.66 -5 3 C-5.99 4.485 -5.99 4.485 -7 6 C-9.3828125 6.29296875 -9.3828125 6.29296875 -12.125 6.1875 C-13.03507812 6.16042969 -13.94515625 6.13335937 -14.8828125 6.10546875 C-15.58148438 6.07066406 -16.28015625 6.03585937 -17 6 C-14.55436688 3.55436688 -12.24474828 2.65868745 -9.0625 1.3125 C-8.00160156 0.85488281 -6.94070312 0.39726562 -5.84765625 -0.07421875 C-3 -1 -3 -1 0 0 Z " fill="#21C249" transform="translate(54,399)"/>
<path d="M0 0 C-2.59925496 1.19942605 -5.20345507 2.38472821 -7.8125 3.5625 C-8.55048828 3.90474609 -9.28847656 4.24699219 -10.04882812 4.59960938 C-10.76103516 4.91865234 -11.47324219 5.23769531 -12.20703125 5.56640625 C-12.8616333 5.86490479 -13.51623535 6.16340332 -14.19067383 6.47094727 C-16 7 -16 7 -19 6 C-18.67 5.34 -18.34 4.68 -18 4 C-16.35 4 -14.7 4 -13 4 C-13 2.68 -13 1.36 -13 0 C-11.58456585 -0.19658808 -10.16755969 -0.38187546 -8.75 -0.5625 C-7.96109375 -0.66691406 -7.1721875 -0.77132813 -6.359375 -0.87890625 C-3.98020513 -1.00101596 -2.27793584 -0.6241208 0 0 Z " fill="#1CC345" transform="translate(100,345)"/>
<path d="M0 0 C0.33 0 0.66 0 1 0 C1.65399788 17.07661136 1.65399788 17.07661136 -3.078125 22.2890625 C-4.02945312 23.13597656 -4.02945312 23.13597656 -5 24 C-4.79503906 23.16597656 -4.59007812 22.33195312 -4.37890625 21.47265625 C-2.81988293 14.96056361 -1.65489207 8.65806934 -1 2 C-0.67 1.34 -0.34 0.68 0 0 Z " fill="#E4413F" transform="translate(368,291)"/>
<path d="M0 0 C1.65 0 3.3 0 5 0 C1.6266693 2.80688169 -2.05975931 4.53750866 -6.0625 6.25 C-6.68705078 6.53101562 -7.31160156 6.81203125 -7.95507812 7.1015625 C-12.63800023 9.12066659 -12.63800023 9.12066659 -16 8 C-14.02 7.34 -12.04 6.68 -10 6 C-10 5.01 -10 4.02 -10 3 C-6.7 2.67 -3.4 2.34 0 2 C0 1.34 0 0.68 0 0 Z " fill="#1DBE4B" transform="translate(356,121)"/>
<path d="M0 0 C2.73155175 1.6505136 5.00087467 3.50440315 7 6 C7 6.66 7 7.32 7 8 C6.34 8 5.68 8 5 8 C4.319375 7.071875 4.319375 7.071875 3.625 6.125 C1.78378942 3.71726309 0.81583143 3.06186236 -2 2 C-5.27942758 1.75856334 -5.27942758 1.75856334 -8.75 1.875 C-9.92046875 1.89304687 -11.0909375 1.91109375 -12.296875 1.9296875 C-13.18890625 1.95289063 -14.0809375 1.97609375 -15 2 C-10.8015207 -2.1984793 -5.38571887 -1.35049748 0 0 Z " fill="#26B74F" transform="translate(126,372)"/>
<path d="M0 0 C0.680625 0.33 1.36125 0.66 2.0625 1 C5.50840238 2.17307315 8.38397422 2.14180493 12 2 C9.3104472 4.6895528 6.54672583 5.69331154 3 7 C2.01 6.67 1.02 6.34 0 6 C-0.38218767 4.34385343 -0.71395102 2.67542976 -1 1 C-0.67 0.67 -0.34 0.34 0 0 Z " fill="#14C63F" transform="translate(241,345)"/>
<path d="M0 0 C0 0.99 0 1.98 0 3 C-1.29735507 4.04625409 -2.63266972 5.04701223 -4 6 C-4.33 6.66 -4.66 7.32 -5 8 C-8.63 8 -12.26 8 -16 8 C-12.8657518 5.9105012 -9.73890554 4.43554114 -6.3125 2.875 C-5.13300781 2.33617187 -3.95351563 1.79734375 -2.73828125 1.2421875 C-1.83464844 0.83226562 -0.93101562 0.42234375 0 0 Z " fill="#23C44A" transform="translate(268,292)"/>
<path d="M0 0 C0.99 0.33 1.98 0.66 3 1 C2.67 1.66 2.34 2.32 2 3 C5.465 2.505 5.465 2.505 9 2 C6.59231297 4.79163712 4.23853384 5.89717557 0.8125 7.1875 C-0.08855469 7.53167969 -0.98960938 7.87585938 -1.91796875 8.23046875 C-2.60503906 8.48441406 -3.29210937 8.73835938 -4 9 C-4 8.34 -4 7.68 -4 7 C-3.34 7 -2.68 7 -2 7 C-2.66 5.02 -3.32 3.04 -4 1 C-2.68 1.33 -1.36 1.66 0 2 C0 1.34 0 0.68 0 0 Z " fill="#18C645" transform="translate(112,264)"/>
<path d="M0 0 C4 0 4 0 5.5625 1.4375 C6.036875 1.953125 6.51125 2.46875 7 3 C7.99 3.33 8.98 3.66 10 4 C9.88660796 6.64680904 9.75987127 9.29177518 9.625 11.9375 C9.57859375 13.06961914 9.57859375 13.06961914 9.53125 14.22460938 C9.4273685 16.15507395 9.22104386 18.07942081 9 20 C8.34 20.33 7.68 20.66 7 21 C7.04640625 20.20335937 7.0928125 19.40671875 7.140625 18.5859375 C7.40527306 10.81662672 6.65369503 6.91467324 1.25 1.125 C0.8375 0.75375 0.425 0.3825 0 0 Z " fill="#1EC048" transform="translate(210,167)"/>
<path d="M0 0 C-6 6 -6 6 -8.3828125 6.1953125 C-9.28773438 6.17210937 -10.19265625 6.14890625 -11.125 6.125 C-12.49011719 6.09792969 -12.49011719 6.09792969 -13.8828125 6.0703125 C-14.58148438 6.04710937 -15.28015625 6.02390625 -16 6 C-13.10600531 3.65788337 -10.32844572 2.13137829 -6.875 0.75 C-6.00617188 0.39421875 -5.13734375 0.0384375 -4.2421875 -0.328125 C-2 -1 -2 -1 0 0 Z " fill="#17C646" transform="translate(395,47)"/>
<path d="M0 0 C2.31 0.33 4.62 0.66 7 1 C3.63263969 3.82858266 0.12548042 5.4998253 -4 7 C-4.99 6.67 -5.98 6.34 -7 6 C-6.34 6 -5.68 6 -5 6 C-4.67 4.35 -4.34 2.7 -4 1 C-2.68 1.33 -1.36 1.66 0 2 C0 1.34 0 0.68 0 0 Z " fill="#E6423E" transform="translate(319,234)"/>
<path d="M0 0 C-1 3 -1 3 -4 5 C-4.99 6.485 -4.99 6.485 -6 8 C-6 7.34 -6 6.68 -6 6 C-9.3 6.33 -12.6 6.66 -16 7 C-13.53859635 4.53859635 -11.21543707 3.69673014 -8 2.375 C-6.9275 1.92898437 -5.855 1.48296875 -4.75 1.0234375 C-2 0 -2 0 0 0 Z " fill="#1EC447" transform="translate(213,125)"/>
<path d="M0 0 C-0.125 1.875 -0.125 1.875 -1 4 C-5.35100024 6.07190488 -9.23623816 6.19055047 -14 6 C-11.74402173 3.74402173 -9.95396133 3.03425808 -7 1.875 C-6.113125 1.52179688 -5.22625 1.16859375 -4.3125 0.8046875 C-2 0 -2 0 0 0 Z " fill="#1EC344" transform="translate(246,111)"/>
<path d="M0 0 C0 0.66 0 1.32 0 2 C-0.99 2.33 -1.98 2.66 -3 3 C-4.05008653 4.97416268 -5.04987876 6.97582866 -6 9 C-6.66 9.66 -7.32 10.32 -8 11 C-8.45811675 12.97235333 -8.45811675 12.97235333 -8.625 15.125 C-8.74875 16.40375 -8.8725 17.6825 -9 19 C-9.33 19 -9.66 19 -10 19 C-10.34573147 13.23780888 -10.34446833 8.95903925 -7 4 C-2.68421053 0 -2.68421053 0 0 0 Z " fill="#26BE4F" transform="translate(101,378)"/>
<path d="M0 0 C1.65 0 3.3 0 5 0 C1.51069535 2.97932935 -2.39716735 4.54739251 -6.625 6.1875 C-7.305625 6.46013672 -7.98625 6.73277344 -8.6875 7.01367188 C-13.72550517 9 -13.72550517 9 -16 9 C-16 8.34 -16 7.68 -16 7 C-14.68 7 -13.36 7 -12 7 C-12 6.34 -12 5.68 -12 5 C-4.71428571 1.57142857 -4.71428571 1.57142857 0 2 C0 1.34 0 0.68 0 0 Z " fill="#22BE4A" transform="translate(76,352)"/>
<path d="M0 0 C-3.11963179 1.36678479 -6.24646237 2.71623991 -9.375 4.0625 C-10.26445313 4.45244141 -11.15390625 4.84238281 -12.0703125 5.24414062 C-12.92109375 5.60830078 -13.771875 5.97246094 -14.6484375 6.34765625 C-15.43395996 6.68804932 -16.21948242 7.02844238 -17.02880859 7.37915039 C-19 8 -19 8 -21 7 C-14.74050184 2.57255008 -7.80405257 -2.13278455 0 0 Z " fill="#27C04D" transform="translate(124,335)"/>
<path d="M0 0 C0.1875 2.375 0.1875 2.375 0 5 C-0.99 5.66 -1.98 6.32 -3 7 C-3.33 6.01 -3.66 5.02 -4 4 C-4.9075 4.350625 -5.815 4.70125 -6.75 5.0625 C-10.00591313 6.00170571 -10.92749994 5.95514676 -14 5 C-12.23244474 4.15973604 -10.46082737 3.32801278 -8.6875 2.5 C-7.70136719 2.0359375 -6.71523438 1.571875 -5.69921875 1.09375 C-3 0 -3 0 0 0 Z " fill="#20C549" transform="translate(480,9)"/>
<path d="M0 0 C-3.24863429 2.16575619 -6.60622857 3.62352411 -10.1875 5.125 C-10.84169922 5.40214844 -11.49589844 5.67929687 -12.16992188 5.96484375 C-13.77879012 6.64597045 -15.38924215 7.32335403 -17 8 C-17 7.01 -17 6.02 -17 5 C-15.68 5 -14.36 5 -13 5 C-12.67 4.34 -12.34 3.68 -12 3 C-11.01 3 -10.02 3 -9 3 C-8.67 2.01 -8.34 1.02 -8 0 C-4.71303767 -0.79953138 -3.28976808 -1.09658936 0 0 Z " fill="#EA4243" transform="translate(166,482)"/>
<path d="M0 0 C0.66 0.33 1.32 0.66 2 1 C-1.625 4 -1.625 4 -5 4 C-5.33 4.99 -5.66 5.98 -6 7 C-9.63 7.33 -13.26 7.66 -17 8 C-14.26965065 5.26965065 -11.02687784 4.21336269 -7.5 2.8125 C-6.81035156 2.52697266 -6.12070313 2.24144531 -5.41015625 1.94726562 C-3.63095824 1.23454595 -1.81682212 0.6104689 0 0 Z " fill="#2BC352" transform="translate(171,279)"/>
<path d="M0 0 C0 0.99 0 1.98 0 3 C-0.78375 3.185625 -1.5675 3.37125 -2.375 3.5625 C-5.39376342 4.83961627 -5.39376342 4.83961627 -6.3125 8.625 C-6.539375 9.73875 -6.76625 10.8525 -7 12 C-8.32 12.33 -9.64 12.66 -11 13 C-9.96379261 7.24329229 -8.18316594 4.73972999 -3.65625 1.06640625 C-2 0 -2 0 0 0 Z " fill="#27BD4F" transform="translate(85,180)"/>
<path d="M0 0 C2 1 4 2 6 3 C6 2.34 6 1.68 6 1 C7.65 1 9.3 1 11 1 C7.2440786 4.42931954 2.76533255 5.56429083 -2 7 C-1.34 6.01 -0.68 5.02 0 4 C0 2.68 0 1.36 0 0 Z " fill="#EA3E3D" transform="translate(244,442)"/>
<path d="M0 0 C0.33 0.66 0.66 1.32 1 2 C3.31 2 5.62 2 8 2 C5.32522069 4.67477931 2.507025 5.6464114 -1 7 C-1.99 7 -2.98 7 -4 7 C-2.79618552 4.50638429 -1.54571278 2.31856917 0 0 Z " fill="#E04449" transform="translate(272,253)"/>
<path d="M0 0 C1.89453125 0.19921875 1.89453125 0.19921875 4 1 C5.01171875 3.14453125 5.01171875 3.14453125 5.6875 5.8125 C5.91824219 6.68519531 6.14898437 7.55789062 6.38671875 8.45703125 C6.58910156 9.29621094 6.79148438 10.13539063 7 11 C7.19207031 11.76699219 7.38414062 12.53398437 7.58203125 13.32421875 C7.78892578 14.15373047 7.78892578 14.15373047 8 15 C7.01 15.495 7.01 15.495 6 16 C5.81824219 15.33613281 5.63648438 14.67226562 5.44921875 13.98828125 C4.09854557 9.2436088 2.79481023 5.12567224 0 1 C0 0.67 0 0.34 0 0 Z " fill="#14C841" transform="translate(199,241)"/>
<path d="M0 0 C0.94875 0.04125 1.8975 0.0825 2.875 0.125 C0.27145656 2.72854344 -2.72592873 3.83980102 -6.0625 5.25 C-7.01286133 5.66572266 -7.01286133 5.66572266 -7.98242188 6.08984375 C-10.86574704 7.32079014 -12.95710205 8.125 -16.125 8.125 C-16.125 7.465 -16.125 6.805 -16.125 6.125 C-14.805 6.125 -13.485 6.125 -12.125 6.125 C-12.125 5.465 -12.125 4.805 -12.125 4.125 C-11.01125 3.83625 -9.8975 3.5475 -8.75 3.25 C-4.92667502 2.06345087 -3.90495138 0.15619806 0 0 Z " fill="#E34B49" transform="translate(365.125,216.875)"/>
<path d="M0 0 C0 0.66 0 1.32 0 2 C-4.06946059 5.01927721 -9.04622651 6.97202554 -14 8 C-15.34205087 7.70370903 -16.67774313 7.37486753 -18 7 C-15.37690901 5.82887054 -12.75171858 4.66294036 -10.125 3.5 C-9.37863281 3.16613281 -8.63226563 2.83226562 -7.86328125 2.48828125 C-7.14785156 2.17246094 -6.43242188 1.85664063 -5.6953125 1.53125 C-5.03547363 1.23798828 -4.37563477 0.94472656 -3.69580078 0.64257812 C-2 0 -2 0 0 0 Z " fill="#2CC150" transform="translate(118,302)"/>
<path d="M0 0 C2.4375 0.75 2.4375 0.75 5 2 C5.875 4.0625 5.875 4.0625 6 6 C5 7 5 7 2.4375 7.0625 C1.2309375 7.0315625 1.2309375 7.0315625 0 7 C-1.33332095 4.3333581 -0.67102033 2.83319697 0 0 Z " fill="#FD312F" transform="translate(278,245)"/>
<path d="M0 0 C-2.26807204 1.0067004 -4.53907754 2.00551766 -6.8125 3 C-7.77639648 3.42925781 -7.77639648 3.42925781 -8.75976562 3.8671875 C-11.67756469 5.13711041 -13.78265714 6 -17 6 C-17 5.34 -17 4.68 -17 4 C-15.68 4 -14.36 4 -13 4 C-12.67 2.68 -12.34 1.36 -12 0 C-12 0.66 -12 1.32 -12 2 C-11.07767578 1.65775391 -11.07767578 1.65775391 -10.13671875 1.30859375 C-8.92435547 0.87740234 -8.92435547 0.87740234 -7.6875 0.4375 C-6.48673828 0.00244141 -6.48673828 0.00244141 -5.26171875 -0.44140625 C-3 -1 -3 -1 0 0 Z " fill="#27C34E" transform="translate(189,171)"/>
<path d="M0 0 C0.66 0.33 1.32 0.66 2 1 C0.58829091 2.29708314 -0.82958196 3.58745978 -2.25 4.875 C-3.03890625 5.59429687 -3.8278125 6.31359375 -4.640625 7.0546875 C-7.85390233 9.7040453 -9.80401262 11 -14 11 C-14 10.34 -14 9.68 -14 9 C-12.576875 8.5978125 -12.576875 8.5978125 -11.125 8.1875 C-7.74732727 7.25013412 -7.74732727 7.25013412 -6 4 C-4.35857037 2.9590934 -2.69287785 1.95495674 -1 1 C-0.67 0.67 -0.34 0.34 0 0 Z " fill="#25BB4A" transform="translate(285,328)"/>
<path d="M0 0 C0 3.46006569 -0.32095532 6.60477658 -1 10 C-1.99 10.66 -2.98 11.32 -4 12 C-4 11.34 -4 10.68 -4 10 C-4.99 10.33 -5.98 10.66 -7 11 C-5.5140084 6.40693504 -3.14985318 3.56430755 0 0 Z " fill="#EC4142" transform="translate(326,177)"/>
<path d="M0 0 C-0.66 0.66 -1.32 1.32 -2 2 C-2.99 2 -3.98 2 -5 2 C-5.33 2.99 -5.66 3.98 -6 5 C-9.3 5.33 -12.6 5.66 -16 6 C-12.77129809 3.57847357 -10.51683772 2.20673509 -6.875 0.75 C-6.00617188 0.39421875 -5.13734375 0.0384375 -4.2421875 -0.328125 C-2 -1 -2 -1 0 0 Z " fill="#2EBE52" transform="translate(278,98)"/>
<path d="M0 0 C-2.28929053 1.17154293 -4.58118362 2.33738074 -6.875 3.5 C-7.52597656 3.83386719 -8.17695313 4.16773437 -8.84765625 4.51171875 C-13.7734375 7 -13.7734375 7 -16 7 C-16 6.34 -16 5.68 -16 5 C-5.00843526 -1.46562632 -5.00843526 -1.46562632 0 0 Z " fill="#22C34C" transform="translate(456,80)"/>
<path d="M0 0 C-0.99 1.485 -0.99 1.485 -2 3 C-2.99 3 -3.98 3 -5 3 C-5.33 3.66 -5.66 4.32 -6 5 C-8.06640625 5.4140625 -8.06640625 5.4140625 -10.5625 5.625 C-11.38878906 5.69976562 -12.21507812 5.77453125 -13.06640625 5.8515625 C-14.02353516 5.92503906 -14.02353516 5.92503906 -15 6 C-11.57875892 3.02500775 -4.44240633 -2.22120316 0 0 Z " fill="#29C14D" transform="translate(369,58)"/>
<path d="M0 0 C1.32 0.66 2.64 1.32 4 2 C1.89915791 3.00696568 -0.20579489 4.0053589 -2.3125 5 C-3.48425781 5.556875 -4.65601563 6.11375 -5.86328125 6.6875 C-9 8 -9 8 -12 8 C-12 7.34 -12 6.68 -12 6 C-11.43410156 5.89042969 -10.86820312 5.78085938 -10.28515625 5.66796875 C-9.18494141 5.43013672 -9.18494141 5.43013672 -8.0625 5.1875 C-7.33160156 5.03667969 -6.60070312 4.88585937 -5.84765625 4.73046875 C-5.23792969 4.48941406 -4.62820313 4.24835938 -4 4 C-3.67 3.01 -3.34 2.02 -3 1 C-2.01 1.33 -1.02 1.66 0 2 C0 1.34 0 0.68 0 0 Z " fill="#26C14B" transform="translate(373,113)"/>
<path d="M0 0 C0.33 0.66 0.66 1.32 1 2 C-0.43359375 4.6015625 -0.43359375 4.6015625 -2.4375 7.625 C-3.42556641 9.12933594 -3.42556641 9.12933594 -4.43359375 10.6640625 C-4.95050781 11.43492187 -5.46742188 12.20578125 -6 13 C-6.33 11.68 -6.66 10.36 -7 9 C-6.34 9 -5.68 9 -5 9 C-5.33 8.01 -5.66 7.02 -6 6 C-4.68 5.67 -3.36 5.34 -2 5 C-2 3.68 -2 2.36 -2 1 C-1.34 0.67 -0.68 0.34 0 0 Z " fill="#E64447" transform="translate(417,355)"/>
<path d="M0 0 C0.66 0.33 1.32 0.66 2 1 C-4.75 5 -4.75 5 -7 5 C-7.33 5.99 -7.66 6.98 -8 8 C-9.65 8.33 -11.3 8.66 -13 9 C-9.28570342 4.82141635 -5.35814198 1.82153171 0 0 Z " fill="#E55251" transform="translate(187,411)"/>
<path d="M0 0 C0.99 0 1.98 0 3 0 C1.40956621 5.08938811 -1.7446951 8.87456643 -5 13 C-5.33 12.34 -5.66 11.68 -6 11 C-5.06553465 8.96855359 -4.06775224 6.96466413 -3 5 C-2.34 5 -1.68 5 -1 5 C-0.67 3.35 -0.34 1.7 0 0 Z " fill="#24BB4C" transform="translate(304,299)"/>
<path d="M0 0 C0 0.99 0 1.98 0 3 C-0.969375 3.28875 -1.93875 3.5775 -2.9375 3.875 C-6.10664203 4.64214682 -6.10664203 4.64214682 -7 7 C-11 7 -11 7 -14 6 C-9.38 4.02 -4.76 2.04 0 0 Z " fill="#35C757" transform="translate(187,272)"/>
<path d="M0 0 C1.98 0 3.96 0 6 0 C3.03653214 2.47186455 0.45958311 3.66248361 -3.25 4.6875 C-4.14203125 4.93886719 -5.0340625 5.19023437 -5.953125 5.44921875 C-6.62859375 5.63097656 -7.3040625 5.81273437 -8 6 C-6.25 4 -6.25 4 -4 2 C-2.68 2 -1.36 2 0 2 C0 1.34 0 0.68 0 0 Z " fill="#22BF49" transform="translate(175,378)"/>
<path d="M0 0 C0.66 0 1.32 0 2 0 C2.268125 1.258125 2.53625 2.51625 2.8125 3.8125 C3.61948024 7.08653413 4.35432864 8.8144454 7 11 C7.33 11.99 7.66 12.98 8 14 C4.13995876 12.53584643 2.73327733 10.7141657 1 7 C0.3125 3.1875 0.3125 3.1875 0 0 Z " fill="#26BA4F" transform="translate(141,370)"/>
<path d="M0 0 C3.24545166 2.16363444 3.41697963 2.40100906 4.1875 5.9375 C4.34605469 6.62714844 4.50460938 7.31679687 4.66796875 8.02734375 C5 10 5 10 5 13 C0.87010523 8.73688282 0.38728235 5.71241466 0 0 Z " fill="#22BE4D" transform="translate(74,194)"/>
<path d="M0 0 C0 0.33 0 0.66 0 1 C-1.08667969 1.16435547 -1.08667969 1.16435547 -2.1953125 1.33203125 C-7.66287223 2.22871105 -12.22286803 3.15954315 -17 6 C-17.66 5.34 -18.32 4.68 -19 4 C-12.37384327 0.90133798 -7.32627475 -0.47266289 0 0 Z " fill="#2CBC52" transform="translate(73,393)"/>
<path d="M0 0 C0 0.99 0 1.98 0 3 C-1.4096347 3.70180531 -2.82807641 4.38593958 -4.25 5.0625 C-5.03890625 5.44535156 -5.8278125 5.82820312 -6.640625 6.22265625 C-9 7 -9 7 -13 6 C-8.71 4.02 -4.42 2.04 0 0 Z " fill="#3BC35B" transform="translate(84,247)"/>
<path d="M0 0 C0 0.66 0 1.32 0 2 C-1.1446875 2.4021875 -1.1446875 2.4021875 -2.3125 2.8125 C-4.87380884 3.94424112 -6.19692938 4.91223401 -8 7 C-8 6.34 -8 5.68 -8 5 C-9.65 5.33 -11.3 5.66 -13 6 C-9.40464172 2.97989905 -4.81374718 0 0 0 Z " fill="#EC3B3D" transform="translate(347,165)"/>
<path d="M0 0 C-2.22656346 2.22656346 -3.03509172 2.32230668 -6 3 C-6.825 3.37125 -7.65 3.7425 -8.5 4.125 C-11.2878429 5.10074502 -12.258015 4.82491922 -15 4 C-13.25705322 3.13153169 -11.50531337 2.28069373 -9.75 1.4375 C-8.77546875 0.96183594 -7.8009375 0.48617187 -6.796875 -0.00390625 C-3.90143703 -1.03510273 -2.80033839 -1.11346788 0 0 Z " fill="#E54749" transform="translate(422,134)"/>
<path d="M0 0 C-3.62535821 3.17218843 -7.51150278 4.42902597 -12 6 C-12 4 -12 4 -9.9375 1.875 C-6.36313462 -0.40650982 -4.16216275 -0.32644414 0 0 Z " fill="#2CC358" transform="translate(338,131)"/>
<path d="M0 0 C0.33 0.99 0.66 1.98 1 3 C0.01 3.33 -0.98 3.66 -2 4 C-2.73323796 6.01508358 -2.73323796 6.01508358 -3 8 C-4.65 8.33 -6.3 8.66 -8 9 C-7.04270084 7.87411986 -6.08412105 6.7493285 -5.125 5.625 C-4.59132812 4.99851562 -4.05765625 4.37203125 -3.5078125 3.7265625 C-2.38567993 2.44163349 -1.20628025 1.20628025 0 0 Z " fill="#ED4E4C" transform="translate(167,424)"/>
<path d="M0 0 C0.66 0.33 1.32 0.66 2 1 C0.20038714 4.87608925 -1.97803406 7.97803406 -5 11 C-4.54663921 6.12637153 -3.2910841 3.60957611 0 0 Z " fill="#22C04E" transform="translate(147,358)"/>
<path d="M0 0 C0.66 0.99 1.32 1.98 2 3 C-0.25 5.0625 -0.25 5.0625 -3 7 C-4.32 6.67 -5.64 6.34 -7 6 C-4.69 4.02 -2.38 2.04 0 0 Z " fill="#EB3737" transform="translate(347,337)"/>
<path d="M0 0 C0.33 1.32 0.66 2.64 1 4 C0.01 4.495 0.01 4.495 -1 5 C-1 5.99 -1 6.98 -1 8 C-1.66 8 -2.32 8 -3 8 C-3 8.66 -3 9.32 -3 10 C-3.99 10 -4.98 10 -6 10 C-4.6302836 6.00499382 -2.74277578 3.19990508 0 0 Z " fill="#E64543" transform="translate(313,195)"/>
<path d="M0 0 C1.98 0.66 3.96 1.32 6 2 C3.31158141 4.25245881 1.35358125 5.88213958 -2 7 C-1.125 2.25 -1.125 2.25 0 0 Z " fill="#13C646" transform="translate(458,72)"/>
<path d="M0 0 C0.66 0.33 1.32 0.66 2 1 C0.3811004 2.03048037 -1.24532489 3.04914678 -2.875 4.0625 C-3.77992187 4.63097656 -4.68484375 5.19945312 -5.6171875 5.78515625 C-6.40351562 6.18605469 -7.18984375 6.58695312 -8 7 C-8.66 6.67 -9.32 6.34 -10 6 C-9.67 5.34 -9.34 4.68 -9 4 C-7.68 4 -6.36 4 -5 4 C-5 3.34 -5 2.68 -5 2 C-2.625 0.9375 -2.625 0.9375 0 0 Z " fill="#23BD4C" transform="translate(79,419)"/>
<path d="M0 0 C2.31 0.66 4.62 1.32 7 2 C5.25 3.5625 5.25 3.5625 3 5 C0.75 4.6875 0.75 4.6875 -1 4 C-0.67 2.68 -0.34 1.36 0 0 Z " fill="#ED3E39" transform="translate(338,402)"/>
<path d="M0 0 C0.99 0 1.98 0 3 0 C3.33 2.97 3.66 5.94 4 9 C2 7 0 5 -2 3 C-1.34 2.01 -0.68 1.02 0 0 Z " fill="#F53E40" transform="translate(280,241)"/>
<path d="M0 0 C0.33 1.32 0.66 2.64 1 4 C-3.43076923 7.07692308 -3.43076923 7.07692308 -6.3125 6.6875 C-6.869375 6.460625 -7.42625 6.23375 -8 6 C-7.05125 5.38125 -6.1025 4.7625 -5.125 4.125 C-2.05554891 2.18029031 -2.05554891 2.18029031 0 0 Z " fill="#1DC04B" transform="translate(216,189)"/>
<path d="M0 0 C1.08581335 3.34607787 0.97266479 4.08488303 -0.1875 7.6875 C-2 11 -2 11 -4.1875 11.9375 C-4.785625 11.958125 -5.38375 11.97875 -6 12 C-6 11.34 -6 10.68 -6 10 C-5.34 9.67 -4.68 9.34 -4 9 C-2.87293294 6.88984046 -2.87293294 6.88984046 -1.875 4.4375 C-1.34519531 3.19806641 -1.34519531 3.19806641 -0.8046875 1.93359375 C-0.53914062 1.29550781 -0.27359375 0.65742188 0 0 Z " fill="#1AC145" transform="translate(197,330)"/>
<path d="M0 0 C0.66 0.66 1.32 1.32 2 2 C0.5682384 2.69937202 -0.87067032 3.38412718 -2.3125 4.0625 C-3.51326172 4.63677734 -3.51326172 4.63677734 -4.73828125 5.22265625 C-7 6 -7 6 -10 5 C-6.8745041 2.35534962 -3.91211733 1.15585285 0 0 Z " fill="#1EC045" transform="translate(154,183)"/>
<path d="M0 0 C2.0625 0.4375 2.0625 0.4375 4 1 C2.21046815 1.83790789 0.41830305 2.67019396 -1.375 3.5 C-2.87160156 4.19609375 -2.87160156 4.19609375 -4.3984375 4.90625 C-7 6 -7 6 -9 6 C-8.67 5.01 -8.34 4.02 -8 3 C-5.68970915 2.25740651 -3.354248 1.588562 -1 1 C-0.67 0.67 -0.34 0.34 0 0 Z " fill="#28C051" transform="translate(403,101)"/>
<path d="M0 0 C-0.66 0.66 -1.32 1.32 -2 2 C-3.32 2 -4.64 2 -6 2 C-6.33 2.99 -6.66 3.98 -7 5 C-7.99 4.67 -8.98 4.34 -10 4 C-6.87839899 0.56623888 -4.64008112 -1.54669371 0 0 Z " fill="#1FBF48" transform="translate(16,415)"/>
<path d="M0 0 C0.66 0.33 1.32 0.66 2 1 C1.01 1.66 0.02 2.32 -1 3 C-1 3.99 -1 4.98 -1 6 C-1.66 6 -2.32 6 -3 6 C-3 5.34 -3 4.68 -3 4 C-4.65 4 -6.3 4 -8 4 C-5.31143836 2.20762558 -3.0466145 1.01553817 0 0 Z " fill="#1EC449" transform="translate(72,321)"/>
<path d="M0 0 C0 0.66 0 1.32 0 2 C-0.66 2 -1.32 2 -2 2 C-2 2.99 -2 3.98 -2 5 C-4.31 4.67 -6.62 4.34 -9 4 C-6.10130984 1.70103884 -3.84906588 0 0 0 Z " fill="#1FC047" transform="translate(134,159)"/>
<path d="M0 0 C2.31 0.33 4.62 0.66 7 1 C4.06171403 3.50298434 1.82097239 4.46930939 -2 5 C-1.34 3.35 -0.68 1.7 0 0 Z " fill="#EB4642" transform="translate(299,420)"/>
<path d="M0 0 C0.66 0.33 1.32 0.66 2 1 C0.3125 3.0625 0.3125 3.0625 -2 5 C-4.75 4.75 -4.75 4.75 -7 4 C-4.61426621 2.10786631 -2.92824652 0.97608217 0 0 Z " fill="#E73D3A" transform="translate(242,387)"/>
<path d="M0 0 C0.99 0.33 1.98 0.66 3 1 C0.69 3.31 -1.62 5.62 -4 8 C-4.33 7.01 -4.66 6.02 -5 5 C-4.34 5 -3.68 5 -3 5 C-3 4.01 -3 3.02 -3 2 C-2.01 2 -1.02 2 0 2 C0 1.34 0 0.68 0 0 Z " fill="#1BBD44" transform="translate(249,171)"/>
<path d="M0 0 C0 0.66 0 1.32 0 2 C-0.66 2 -1.32 2 -2 2 C-2.33 2.99 -2.66 3.98 -3 5 C-5.97 4.505 -5.97 4.505 -9 4 C-6.43425105 1.43425105 -3.68548192 0 0 0 Z " fill="#1CC047" transform="translate(120,165)"/>
<path d="M0 0 C0 0.66 0 1.32 0 2 C-6.625 5.125 -6.625 5.125 -10 4 C-8.68 3.67 -7.36 3.34 -6 3 C-6 2.34 -6 1.68 -6 1 C-4 0 -4 0 0 0 Z " fill="#E74747" transform="translate(272,435)"/>
<path d="M0 0 C-0.66 1.32 -1.32 2.64 -2 4 C-4.31 4 -6.62 4 -9 4 C-6.43425105 1.43425105 -3.68548192 0 0 0 Z " fill="#20C047" transform="translate(32,407)"/>
<path d="M0 0 C2.5 1.6875 2.5 1.6875 5 4 C5.3125 6.75 5.3125 6.75 5 9 C4.01 9.495 4.01 9.495 3 10 C2.87625 9.46375 2.7525 8.9275 2.625 8.375 C1.87793984 5.5361714 0.94696636 2.77776798 0 0 Z " fill="#1BBF46" transform="translate(121,240)"/>
<path d="M0 0 C0.99 0 1.98 0 3 0 C4.06775224 1.96466413 5.06553465 3.96855359 6 6 C5.67 6.66 5.34 7.32 5 8 C0 2.25 0 2.25 0 0 Z " fill="#22BE4C" transform="translate(145,240)"/>
<path d="M0 0 C1.32 0.66 2.64 1.32 4 2 C2.68 3.32 1.36 4.64 0 6 C-0.99 5.67 -1.98 5.34 -3 5 C-2.34 5 -1.68 5 -1 5 C-0.67 3.35 -0.34 1.7 0 0 Z " fill="#EF383B" transform="translate(315,235)"/>
<path d="M0 0 C-3.69172595 3.53790403 -7.09390595 3.59115883 -12 4 C-9.94577945 1.94577945 -8.66990976 1.31862408 -6 0.3125 C-5.29875 0.04050781 -4.5975 -0.23148438 -3.875 -0.51171875 C-2 -1 -2 -1 0 0 Z " fill="#32BF57" transform="translate(425,34)"/>
<path d="M0 0 C0 0.66 0 1.32 0 2 C-3.53411321 4.12046792 -6.94393835 4.53199289 -11 5 C-7.72709962 2.33319229 -4.35126896 0 0 0 Z " fill="#37BE57" transform="translate(438,27)"/>
<path d="M0 0 C2.64 0.33 5.28 0.66 8 1 C4.375 4 4.375 4 1 4 C0.67 2.68 0.34 1.36 0 0 Z " fill="#EE3A3B" transform="translate(376,386)"/>
<path d="M0 0 C-0.33 0.99 -0.66 1.98 -1 3 C-5.455 3.495 -5.455 3.495 -10 4 C-4 0 -4 0 0 0 Z " fill="#2BC050" transform="translate(171,348)"/>
<path d="M0 0 C0.66 0 1.32 0 2 0 C1.67 2.64 1.34 5.28 1 8 C0.34 8 -0.32 8 -1 8 C-1.125 2.25 -1.125 2.25 0 0 Z " fill="#20C744" transform="translate(231,200)"/>
<path d="M0 0 C0 0.66 0 1.32 0 2 C-3.4352048 4.29013653 -4.985331 4.17842973 -9 4 C-6.10130984 1.70103884 -3.84906588 0 0 0 Z " fill="#24BF55" transform="translate(388,49)"/>
<path d="M0 0 C0.33 0.66 0.66 1.32 1 2 C1.99 2.33 2.98 2.66 4 3 C-1.75 6 -1.75 6 -4 6 C-4 5.34 -4 4.68 -4 4 C-3.01 4 -2.02 4 -1 4 C-0.67 2.68 -0.34 1.36 0 0 Z " fill="#E84644" transform="translate(228,451)"/>
<path d="M0 0 C-3.00617269 3.00617269 -5.82381598 2.59585316 -10 3 C-6.84439813 -0.15560187 -4.30999015 -1.43666338 0 0 Z " fill="#21BE4B" transform="translate(111,375)"/>
<path d="M0 0 C2.01822917 0.06510417 4.03645833 0.13020833 6.0546875 0.1953125 C4.4296875 1.7578125 4.4296875 1.7578125 2.0546875 3.1953125 C-1.1953125 2.8828125 -1.1953125 2.8828125 -3.9453125 2.1953125 C-1.9453125 0.1953125 -1.9453125 0.1953125 0 0 Z " fill="#11C542" transform="translate(235.9453125,306.8046875)"/>
<path d="M0 0 C1.65 0.33 3.3 0.66 5 1 C2.06171403 3.50298434 -0.17902761 4.46930939 -4 5 C-3.67 4.34 -3.34 3.68 -3 3 C-2.01 3 -1.02 3 0 3 C0 2.01 0 1.02 0 0 Z " fill="#E7484A" transform="translate(298,244)"/>
<path d="M0 0 C0.33 0.66 0.66 1.32 1 2 C0.0625 4.625 0.0625 4.625 -1 7 C-1.99 7 -2.98 7 -4 7 C-2.79618552 4.50638429 -1.54571278 2.31856917 0 0 Z " fill="#EB393C" transform="translate(318,188)"/>
<path d="M0 0 C0.625 1.875 0.625 1.875 1 4 C-1 6 -1 6 -4 7 C-3.6875 4.625 -3.6875 4.625 -3 2 C-2.01 1.34 -1.02 0.68 0 0 Z " fill="#1FC94C" transform="translate(78,186)"/>
</svg>
